<svg width="722" height="402" viewBox="0 0 722 402" fill="none" xmlns="http://www.w3.org/2000/svg">
<g clip-path="url(#clip0_348_715)">
<path d="M249.66 394.61V400.07H213.38V363.67H249.11V369.17H219.57V378.89H244.43V384.35H219.57V394.65L249.66 394.61Z" fill="white"/>
<path d="M295.13 389.31C295.13 396.22 288.32 401.16 275.94 401.16C267.41 401.16 259.87 398.67 254.2 393.78L258.1 389.36C263.04 393.78 268.87 395.75 276.2 395.75C284.31 395.75 288.78 393.62 288.78 389.83C288.78 386.04 284.21 385.09 275.06 384.31C265.06 383.48 255.56 381.25 255.56 373.81C255.56 366.58 263.93 362.58 274.38 362.58C282.28 362.58 288.99 364.92 293.38 368.58L289.38 372.84C285.63 369.57 280.49 368.01 274.45 367.96C268.68 367.9 261.82 369.31 261.82 373.36C261.82 377.21 267.9 377.89 275.82 378.51C287.22 379.43 295.13 381.71 295.13 389.31Z" fill="white"/>
<path d="M336.66 369.17H320.09V400.07H313.85V369.17H297.36V363.67H336.66V369.17Z" fill="white"/>
<path d="M335.58 397.11C335.58 396.049 336.001 395.032 336.752 394.282C337.502 393.531 338.519 393.11 339.58 393.11C340.641 393.11 341.658 393.531 342.408 394.282C343.159 395.032 343.58 396.049 343.58 397.11C343.58 399.11 341.91 400.64 339.58 400.64C339.082 400.688 338.58 400.633 338.104 400.479C337.628 400.325 337.188 400.075 336.813 399.744C336.438 399.413 336.135 399.008 335.923 398.555C335.711 398.102 335.594 397.61 335.58 397.11Z" fill="white"/>
<path d="M383.94 362.63C392.47 362.63 401.16 366.32 401.16 373.63C401.16 379.87 395.16 383.1 386.7 385.91C379.21 388.51 373.59 391.37 372.35 394.85H401.99V400.05H364.6V397.17C365.74 390.67 372.45 385.05 383.16 381.36C389.87 379.02 394.81 377.31 394.81 373.72C394.81 369.66 389.3 367.72 383.73 367.72C380.992 367.67 378.282 368.28 375.83 369.499C373.377 370.717 371.254 372.508 369.64 374.72L365.53 371.49C368.76 366.48 375.57 362.63 383.94 362.63Z" fill="white"/>
<path d="M407.81 381.87C407.81 369.87 415.87 362.58 429.39 362.58C442.91 362.58 450.97 369.91 450.97 381.87C450.97 393.83 442.97 401.16 429.39 401.16C415.81 401.16 407.81 393.83 407.81 381.87ZM444.63 381.87C444.63 372.77 438.75 368.09 429.39 368.09C420.03 368.09 414.15 372.77 414.15 381.87C414.15 390.97 419.98 395.65 429.39 395.65C438.8 395.65 444.66 390.97 444.66 381.87H444.63Z" fill="white"/>
<path d="M474.53 362.63C483.05 362.63 491.74 366.32 491.74 373.63C491.74 379.87 485.74 383.1 477.28 385.91C469.79 388.51 464.18 391.37 462.93 394.85H492.57V400.05H455.18V397.17C456.33 390.67 463.03 385.05 473.75 381.36C480.45 379.02 485.39 377.31 485.39 373.72C485.39 369.66 479.88 367.72 474.32 367.72C471.581 367.665 468.87 368.273 466.417 369.492C463.963 370.711 461.841 372.504 460.23 374.72L456.12 371.49C459.34 366.48 466.15 362.63 474.53 362.63Z" fill="white"/>
<path d="M517.06 362.63C525.59 362.63 534.27 366.32 534.27 373.63C534.27 379.87 528.27 383.1 519.82 385.91C512.33 388.51 506.71 391.37 505.46 394.85H535.11V400.05H497.72V397.17C498.86 390.67 505.57 385.05 516.28 381.36C522.99 379.02 527.93 377.31 527.93 373.72C527.93 369.66 522.42 367.72 516.85 367.72C514.112 367.67 511.402 368.28 508.95 369.499C506.498 370.717 504.374 372.508 502.76 374.72L498.65 371.49C501.88 366.48 508.66 362.63 517.06 362.63Z" fill="white"/>
<path d="M0 240H107L154.58 198.51H279.4L279.46 240H375V0H266.55L0 240ZM279.89 144.34H200.07L279.89 70.34V144.34Z" fill="white"/>
<path d="M641.66 115.54C680.75 113.14 721.44 90.96 721.88 55.94C722.32 13.81 688.83 0 596.3 0H431.52L393.52 240H611.03C675.94 240 717.24 214.63 717.24 174.51C717.21 138.17 682.92 117.94 641.66 115.54ZM592.2 186.17L488.98 186.78L497.21 142.55L592.21 142.63C612.49 142.63 625.03 148.8 625.03 164.23C625.03 179.66 612.48 186.17 592.2 186.17ZM595.12 93.94L508.66 94.02L515.32 53.9L595.12 53.83C613.56 53.83 626.83 58.97 626.83 73.71C626.83 88.8 613.56 93.94 595.12 93.94Z" fill="white"/>
</g>
<defs>
<clipPath id="clip0_348_715">
<rect width="721.83" height="401.16" fill="white"/>
</clipPath>
</defs>
</svg>
