<svg width="65" height="22" viewBox="0 0 65 22" fill="none" xmlns="http://www.w3.org/2000/svg">
<g clip-path="url(#clip0_440_1193)">
<path d="M0 21.844H9.59121L13.8562 18.0677H25.0447L25.0501 21.844H33.6141V-1.52588e-05H23.8929L0 21.844ZM25.0886 13.1373H17.9338L25.0886 6.40209V13.1373Z" fill="#111320"/>
<path d="M57.5168 10.5161C61.0208 10.2976 64.6681 8.27887 64.7075 5.09147C64.747 1.25694 61.745 0 53.4509 0H38.6804L35.2742 21.844H54.7712C60.5896 21.844 64.2916 19.5349 64.2916 15.8833C64.2889 12.5758 61.2153 10.7345 57.5168 10.5161ZM53.0834 16.9446L43.831 17.0001L44.5687 12.9744L53.0843 12.9817C54.9021 12.9817 56.0262 13.5433 56.0262 14.9476C56.0262 16.352 54.9012 16.9446 53.0834 16.9446ZM53.3451 8.5501L45.595 8.55738L46.192 4.90579L53.3451 4.89942C54.998 4.89942 56.1875 5.36725 56.1875 6.70883C56.1875 8.08227 54.998 8.5501 53.3451 8.5501Z" fill="#111320"/>
</g>
<defs>
<clipPath id="clip0_440_1193">
<rect width="65" height="22" fill="white"/>
</clipPath>
</defs>
</svg>
