<svg width="207" height="38" viewBox="0 0 207 38" fill="none" xmlns="http://www.w3.org/2000/svg">
<path d="M0 37.8358V0H205.683C206.411 0 206.308 -1.78814e-07 206.308 0.625114C206.308 14.1797 206.308 23.7343 206.308 37.2888C206.308 37.9139 206.355 37.8639 205.739 37.8639H0.456334C0.312558 37.8514 0.153153 37.842 0 37.8358ZM143.015 19.945C142.853 19.5981 142.703 19.2574 142.534 18.9167C140.571 14.5888 138.61 10.2599 136.652 5.92995C136.622 5.8453 136.565 5.77292 136.49 5.72424C136.415 5.67556 136.325 5.65336 136.236 5.66115C134.615 5.66115 132.994 5.66115 131.373 5.66115C131.101 5.66115 131.004 5.76117 131.007 6.02996C131.007 6.88637 131.007 7.7459 131.007 8.60231C131.007 9.14616 131.007 9.14616 131.529 9.25243C131.948 9.30491 132.331 9.51528 132.6 9.84057C132.869 10.1659 133.003 10.5815 132.976 11.0028C132.951 16.2787 132.976 21.5547 132.976 26.8307C132.98 27.0309 132.972 27.2313 132.954 27.4308C132.951 27.5919 132.915 27.7507 132.848 27.8972C132.78 28.0438 132.684 28.1751 132.564 28.2829C132.444 28.3907 132.304 28.4728 132.151 28.524C131.998 28.5753 131.836 28.5947 131.676 28.581C131.561 28.5872 131.447 28.5872 131.332 28.581C131.098 28.581 131.019 28.681 131.019 28.8935C131.019 29.8562 131.019 30.8189 131.019 31.7816C131.019 32.0097 131.11 32.0941 131.332 32.0941C133.228 32.0941 135.125 32.0941 137.024 32.0941C137.267 32.0941 137.364 31.9972 137.364 31.7534C137.364 30.8033 137.364 29.851 137.364 28.8967C137.37 28.85 137.367 28.8026 137.355 28.7572C137.342 28.7118 137.321 28.6694 137.292 28.6324C137.262 28.5954 137.226 28.5646 137.185 28.5418C137.144 28.5191 137.099 28.5047 137.052 28.4997C136.798 28.4506 136.568 28.3182 136.398 28.1234C136.228 27.9286 136.128 27.6826 136.114 27.4245C136.099 27.2729 136.094 27.1205 136.098 26.9682V18.3979C136.098 18.2978 136.061 18.1884 136.164 18.0853C136.3 18.243 136.399 18.4287 136.455 18.6292C138.026 22.0048 139.597 25.3804 141.168 28.756L142.562 31.7659C142.647 31.9472 142.725 32.1222 142.984 32.1191C144.044 32.1191 145.1 32.1191 146.16 32.1191C146.385 32.1191 146.472 32.016 146.457 31.8066C146.457 31.6847 146.457 31.5596 146.457 31.4377V10.6339C146.457 9.84004 146.769 9.41809 147.526 9.23368C147.573 9.23042 147.619 9.21724 147.661 9.195C147.704 9.17276 147.74 9.14195 147.77 9.10455C147.799 9.06715 147.821 9.024 147.832 8.97787C147.844 8.93174 147.846 8.88366 147.838 8.83673C147.838 7.89906 147.838 6.96139 147.838 6.02371C147.838 5.75804 147.738 5.67677 147.482 5.67677C145.672 5.67677 143.859 5.67677 142.05 5.67677C141.706 5.67677 141.671 5.71115 141.671 6.05497C141.671 6.92075 141.671 7.78966 141.671 8.65545C141.671 9.14616 141.671 9.14616 142.134 9.30556C142.85 9.55561 143.156 9.94631 143.156 10.6464C143.156 13.647 143.156 16.6465 143.156 19.645C143.128 19.7325 143.165 19.8481 143.015 19.945ZM92.3217 19.9669C92.2821 19.909 92.2466 19.8485 92.2154 19.7856L89.7681 14.4409C88.495 11.6404 87.2239 8.83881 85.9549 6.03622C85.9188 5.91817 85.8432 5.81613 85.7407 5.74726C85.6383 5.6784 85.5153 5.64688 85.3923 5.65802C83.8295 5.65802 82.2449 5.65802 80.6727 5.65802C80.2789 5.65802 80.2507 5.70178 80.2726 6.08622C80.3226 6.96139 80.3008 7.83654 80.2883 8.71171C80.2883 9.14929 80.2632 9.14929 80.6789 9.22117C81.7698 9.41496 82.2417 9.98069 82.2417 11.0746V26.8807C82.2417 26.9776 82.2417 27.0713 82.2417 27.1682C82.2042 28.1496 81.7541 28.5841 80.7727 28.5841H80.6008C80.2882 28.5841 80.2539 28.6341 80.2664 28.9623C80.306 29.8833 80.306 30.8064 80.2664 31.7316C80.2664 32.0722 80.2664 32.1191 80.6196 32.1191H83.9389C84.7297 32.1191 85.5205 32.1191 86.3112 32.1191C86.5394 32.1191 86.6425 32.041 86.6238 31.8066C86.6238 30.8251 86.6238 29.8437 86.6238 28.8623C86.6238 28.6966 86.5706 28.581 86.3956 28.5497C85.5298 28.4122 85.311 27.7183 85.311 27.0713V18.3885C85.311 18.2885 85.2735 18.1791 85.3767 18.0759C85.4798 18.1322 85.5048 18.2385 85.5486 18.3291C86.4217 20.1919 87.2927 22.0558 88.1616 23.9207C89.3847 26.5462 90.6047 29.1717 91.8216 31.7972C91.8588 31.8985 91.9289 31.9844 92.0207 32.0411C92.1125 32.0978 92.2207 32.1219 92.328 32.1097C93.2438 32.1097 94.1595 32.1097 95.0753 32.1097C95.6755 32.1097 95.6754 32.1097 95.6754 31.5221C95.6754 24.673 95.6754 17.8238 95.6754 10.9746C95.6754 10.8058 95.6754 10.6339 95.6754 10.462C95.6764 10.1675 95.7814 9.88274 95.9718 9.65802C96.1622 9.43329 96.4259 9.28301 96.7163 9.23368C96.7648 9.22928 96.8118 9.2148 96.8544 9.19116C96.897 9.16753 96.9342 9.13527 96.9637 9.09643C96.9931 9.0576 97.0141 9.01305 97.0253 8.96564C97.0365 8.91823 97.0377 8.869 97.0288 8.8211C97.0288 7.88968 97.0288 6.95201 97.0288 6.00809C97.0288 5.74241 96.9413 5.63614 96.6663 5.63927C94.8534 5.63927 93.0406 5.63927 91.2309 5.63927C90.8839 5.63927 90.8527 5.67365 90.8527 6.01746C90.8527 6.9145 90.8527 7.80841 90.8527 8.70233C90.8407 8.76631 90.8421 8.83209 90.8569 8.89548C90.8717 8.95887 90.8995 9.01849 90.9386 9.07053C90.9777 9.12257 91.0273 9.1659 91.084 9.19776C91.1408 9.22961 91.2036 9.2493 91.2684 9.25556C92.0685 9.46497 92.353 9.88067 92.353 10.6996C92.353 13.6168 92.353 16.534 92.353 19.4512C92.391 19.6226 92.3802 19.8013 92.3217 19.9669ZM196.138 18.3072C196.197 18.2072 196.316 18.2134 196.41 18.1822C196.818 18.0436 197.18 17.7935 197.453 17.4602C197.91 16.901 198.158 16.2004 198.154 15.4786C198.175 13.6032 198.154 11.7279 198.154 9.87755C198.148 9.63992 198.128 9.4029 198.091 9.16804C197.807 7.06453 196.35 5.68928 194.303 5.67052C191.062 5.64864 187.82 5.67052 184.579 5.67052C184.323 5.67052 184.223 5.75491 184.223 6.01746C184.223 6.95513 184.223 7.86467 184.223 8.78984C184.223 9.08052 184.301 9.20555 184.617 9.23368C185.311 9.29619 185.554 9.59624 185.586 10.2995C185.586 10.3651 185.586 10.4308 185.586 10.4995V26.7525C185.589 27.0485 185.561 27.3439 185.501 27.6339C185.473 27.8711 185.365 28.0915 185.194 28.2586C185.024 28.4257 184.801 28.5296 184.564 28.5528C184.314 28.581 184.229 28.6997 184.232 28.9498C184.232 29.8875 184.232 30.8251 184.232 31.7472C184.232 32.0972 184.257 32.1222 184.607 32.1254C186.83 32.1254 189.052 32.1254 191.271 32.1254C191.543 32.1254 191.643 32.0347 191.64 31.7597C191.64 30.8751 191.64 29.9875 191.64 29.1029C191.64 28.5028 191.599 28.6122 191.184 28.4778C190.293 28.209 190.083 27.8058 190.111 27.0557C190.111 26.8463 190.111 26.6369 190.111 26.4306C190.111 24.4573 190.111 22.4861 190.111 20.517C190.111 20.1576 190.133 20.1451 190.483 20.1513C191.109 20.1513 191.762 20.1513 192.399 20.1513C193.375 20.1513 193.762 20.492 193.915 21.4547C193.933 21.5768 193.942 21.7001 193.94 21.8235C193.94 24.0135 193.94 26.2014 193.94 28.3872C193.929 29.1132 194.049 29.8353 194.294 30.5188C194.644 31.4565 195.278 32.0472 196.303 32.0816C197.328 32.116 198.379 32.0816 199.429 32.0816C199.469 32.0881 199.51 32.0849 199.548 32.0724C199.587 32.06 199.622 32.0385 199.651 32.0098C199.68 31.9811 199.701 31.946 199.713 31.9075C199.726 31.8689 199.729 31.8279 199.723 31.7878C199.723 30.9564 199.723 30.1281 199.723 29.2874C199.727 29.2504 199.724 29.2129 199.714 29.1771C199.703 29.1413 199.686 29.1079 199.663 29.0788C199.64 29.0498 199.611 29.0256 199.578 29.0077C199.546 28.9899 199.51 28.9787 199.473 28.9748C199.093 28.9034 198.754 28.6941 198.519 28.3872C198.27 28.0107 198.15 27.5628 198.179 27.112C198.179 25.3012 198.179 23.4915 198.179 21.6828C198.191 21.1007 198.101 20.521 197.913 19.97C197.629 19.1699 197.138 18.576 196.275 18.3635C196.216 18.3916 196.156 18.3791 196.138 18.3072ZM22.5683 19.2293C22.5683 16.3912 22.5683 13.5532 22.5683 10.7183C22.574 9.92352 22.4024 9.13743 22.0661 8.41726C21.7299 7.69708 21.2373 7.06092 20.6242 6.55506C19.9655 5.95872 19.1026 5.63864 18.2144 5.66115C17.3486 5.67677 16.4797 5.66115 15.6139 5.66115H8.40944C8.01562 5.66115 7.99062 5.68928 7.99062 6.08935C7.99062 7.00202 7.99062 7.91781 7.99062 8.83048C7.99062 9.04927 8.04375 9.17742 8.30317 9.22117C9.18458 9.37433 9.49089 9.7494 9.49089 10.6402V26.9432C9.49148 27.0862 9.48417 27.2292 9.46901 27.3714C9.36274 28.2309 9.18458 28.4278 8.3313 28.5653C8.28203 28.5655 8.23338 28.5764 8.18878 28.5974C8.14418 28.6183 8.10471 28.6488 8.07313 28.6866C8.04156 28.7244 8.01865 28.7687 8.00601 28.8163C7.99338 28.864 7.99132 28.9138 7.99999 28.9623C7.99999 29.8593 7.99999 30.7532 7.99999 31.6503C7.99999 32.1254 7.99999 32.1348 8.47508 32.1348C11.6475 32.1348 14.8231 32.1066 17.9987 32.1348C18.6045 32.1608 19.2085 32.0517 19.7669 31.8155C20.3253 31.5792 20.8242 31.2217 21.2274 30.7689C21.6611 30.3396 22.0052 29.8284 22.2396 29.265C22.4741 28.7016 22.5943 28.0973 22.5933 27.487C22.5683 24.7334 22.5683 21.9829 22.5683 19.2293ZM47.8854 18.6823V26.4275C47.87 28.1141 48.5216 29.7385 49.6983 30.947C51.5736 32.8661 54.3397 32.5505 55.8025 31.5721C56.0963 31.3752 56.3651 31.1471 56.6558 30.947C56.836 30.8085 57.058 30.7355 57.2853 30.7401C57.5126 30.7446 57.7315 30.8264 57.906 30.972C58.2131 31.2003 58.4669 31.4925 58.6499 31.8284C58.701 31.9307 58.7816 32.0153 58.8814 32.071C58.9812 32.1268 59.0955 32.1512 59.2094 32.141C59.8345 32.141 60.4596 32.141 61.0847 32.141C61.5223 32.141 61.5317 32.141 61.5317 31.6909C61.5317 29.5093 61.5317 27.3276 61.5317 25.146C61.5317 24.1927 61.5317 23.2425 61.5317 22.2892C61.5317 21.4703 61.8255 20.8171 62.6725 20.5389C62.8569 20.4795 62.8413 20.3295 62.8413 20.1888C62.8413 19.2261 62.8413 18.2635 62.8413 17.3039C62.8413 17.0445 62.7507 16.9445 62.4881 16.9538C61.9755 16.9538 61.4598 16.9538 60.9441 16.9538H55.8681C55.6775 16.9538 55.4962 16.9538 55.4993 17.2226V20.3076C55.4993 20.4826 55.5775 20.5545 55.7525 20.5826C56.6714 20.7295 57.0184 21.1327 57.0184 22.0673C57.0184 23.2112 57.0184 24.3521 57.0184 25.5054C57.0179 25.7242 57.0001 25.9426 56.9652 26.1587C56.9001 26.6211 56.6829 27.0488 56.3479 27.3742C56.0128 27.6996 55.5791 27.9042 55.1149 27.9559C54.6653 28.0346 54.2024 27.9615 53.7989 27.7482C53.3955 27.5348 53.0744 27.1934 52.8863 26.7775C52.6192 26.2147 52.4885 25.5968 52.505 24.9741C52.505 20.7733 52.505 16.5736 52.505 12.3749C52.4979 11.542 52.766 10.73 53.2677 10.0651C54.0209 9.07427 55.1743 8.93987 56.1213 9.75252C56.2963 9.90003 56.4574 10.0632 56.6027 10.2401C57.1907 10.9587 57.6171 11.7956 57.8529 12.6937C57.9091 12.8968 58.0029 13.0062 58.228 13.0062C59.2281 13.0062 60.2314 13.0062 61.2316 13.0062C61.4692 13.0062 61.5442 12.9031 61.5442 12.6937C61.5442 10.4745 61.5442 8.25537 61.5442 6.03622C61.5442 5.80492 61.4567 5.70803 61.2316 5.72366C60.6065 5.72366 59.9814 5.72366 59.3563 5.72366C59.3105 5.71803 59.2641 5.72174 59.2198 5.73458C59.1756 5.74741 59.1344 5.76909 59.0987 5.79831C59.0631 5.82753 59.0337 5.86368 59.0125 5.90458C58.9912 5.94547 58.9784 5.99025 58.975 6.03622C58.9107 6.31694 58.765 6.57246 58.5561 6.77072C58.4399 6.90104 58.2788 6.98275 58.105 6.99955C57.9312 7.01635 57.7575 6.96701 57.6185 6.86137C57.4341 6.74259 57.2559 6.61757 57.0777 6.4863C56.3375 5.91424 55.4858 5.50329 54.5773 5.27983C52.505 4.80474 50.7453 5.32046 49.3732 6.98014C48.4134 8.13246 47.887 9.58432 47.8854 11.084C47.8667 13.6157 47.8854 16.1506 47.8854 18.6823ZM121.605 32.2973H128.525C128.75 32.2973 128.941 32.2973 128.941 31.9847C128.941 30.1844 128.941 28.3841 128.941 26.5837C128.941 26.3399 128.847 26.2462 128.6 26.2462C127.734 26.2462 126.866 26.2462 126 26.2462C125.772 26.2462 125.687 26.3306 125.665 26.5587C125.663 26.959 125.608 27.3572 125.503 27.7433C125.306 28.3684 125.012 28.581 124.371 28.5841C123.254 28.5841 122.139 28.5841 121.024 28.5841C120.686 28.5841 120.646 28.5435 120.646 28.2028C120.646 25.7919 120.646 23.3821 120.646 20.9733C120.646 20.6108 120.68 20.5795 121.036 20.5764H124.149C125.328 20.5764 125.659 20.8889 125.697 22.0735C125.697 22.4298 125.731 22.4549 126.1 22.4549C126.919 22.4549 127.741 22.4549 128.56 22.4549C128.925 22.4549 128.96 22.4236 128.96 22.0673C128.96 19.8669 128.96 17.6665 128.96 15.4661C128.96 15.1316 128.922 15.1004 128.572 15.0973H126.312C125.687 15.0973 125.712 15.0691 125.687 15.6692C125.656 16.5256 125.284 16.8726 124.437 16.8757H121.13C120.655 16.8757 120.652 16.8757 120.652 16.3975C120.652 14.3138 120.652 12.2301 120.652 10.1463C120.652 9.92755 120.652 9.70876 120.652 9.48997C120.652 9.27118 120.73 9.20555 120.927 9.20555C122.09 9.20555 123.252 9.20555 124.415 9.20555C124.617 9.21174 124.814 9.27329 124.984 9.38351C125.154 9.49373 125.29 9.64839 125.378 9.83066C125.54 10.1348 125.634 10.4709 125.653 10.8152C125.668 11.0559 125.784 11.1278 126.022 11.1278C126.881 11.1278 127.738 11.1278 128.597 11.1278C128.863 11.1278 128.944 11.0184 128.944 10.7683C128.944 9.17846 128.944 7.58754 128.944 5.99558C128.944 5.73303 128.841 5.64552 128.585 5.64552C123.963 5.64552 119.339 5.64552 114.713 5.64552C114.438 5.64552 114.341 5.74554 114.344 6.01434C114.344 6.95201 114.344 7.86468 114.344 8.78672C114.344 9.05552 114.423 9.17429 114.704 9.21492C115.488 9.32432 115.832 9.72752 115.832 10.5027C115.832 16.0537 115.832 21.6068 115.832 27.162C115.832 28.0996 115.57 28.3934 114.666 28.5435C114.429 28.5841 114.354 28.681 114.354 28.9154C114.354 29.8781 114.329 30.8408 114.319 31.8003C114.319 32.2785 114.319 32.2817 114.795 32.2817L121.605 32.2973ZM31.745 32.1191H38.6681C38.89 32.1191 39.0588 32.1004 39.0557 31.8066C39.0557 30.0531 39.0557 28.2997 39.0557 26.5494C39.0557 26.3337 38.9775 26.2368 38.7431 26.2368C37.8492 26.2368 36.9522 26.2368 36.0551 26.2368C35.8176 26.2368 35.7426 26.3399 35.7426 26.5494C35.739 26.9119 35.6928 27.2728 35.6051 27.6245C35.43 28.3122 35.1112 28.5622 34.408 28.5622C33.3203 28.5622 32.2326 28.5622 31.1449 28.5622C30.7448 28.5622 30.7167 28.5372 30.7167 28.1434V21.0233C30.7167 20.5983 30.7417 20.5764 31.1761 20.5764H34.2079C35.3925 20.5764 35.7144 20.8889 35.7457 22.0767C35.7457 22.4236 35.7832 22.4549 36.127 22.4549C36.9741 22.4549 37.8242 22.4549 38.6712 22.4549C39.0244 22.4549 39.0494 22.4298 39.0494 22.0829C39.0494 19.87 39.0494 17.6602 39.0494 15.4504C39.0494 15.1723 38.9432 15.0879 38.6775 15.0941C37.8961 15.0941 37.1147 15.0941 36.3302 15.0941C35.7457 15.0941 35.7488 15.0535 35.7301 15.6599C35.7082 16.5256 35.3331 16.8726 34.4611 16.8726C33.3265 16.8726 32.1919 16.8726 31.0573 16.8726C30.7917 16.8726 30.7042 16.7882 30.7073 16.5288C30.7073 15.538 30.7073 14.5472 30.7073 13.5595V9.59624C30.7073 9.38058 30.7073 9.19304 31.0198 9.19617C32.1544 9.19617 33.289 9.19617 34.4236 9.19617C34.6451 9.19526 34.8622 9.25854 35.0486 9.37834C35.2349 9.49815 35.3826 9.66936 35.4738 9.87129C35.6179 10.1522 35.703 10.4596 35.7238 10.7746C35.7238 11.0403 35.8457 11.1403 36.1145 11.134C36.9741 11.134 37.8305 11.134 38.69 11.134C38.965 11.134 39.0526 11.034 39.0526 10.7652C39.0526 9.18367 39.0526 7.60213 39.0526 6.02059C39.0526 5.75179 38.9682 5.65177 38.69 5.65177C34.0558 5.65177 29.4216 5.65177 24.7874 5.65177C24.5155 5.65177 24.4155 5.74554 24.4186 6.01746C24.4186 6.95513 24.4186 7.89281 24.4186 8.83048C24.4186 9.09303 24.5093 9.18992 24.7718 9.22743C25.5407 9.33995 25.9002 9.75565 25.9002 10.4777C25.9002 16.0599 25.9002 21.6422 25.9002 27.2245C25.9002 28.0871 25.622 28.4153 24.7687 28.5435C24.5061 28.581 24.4155 28.6841 24.4186 28.9467C24.4186 29.8531 24.4186 30.7564 24.4186 31.6628C24.4186 32.0972 24.4186 32.1097 24.8718 32.1097L31.745 32.1191ZM71.1897 5.66427H64.2947C64.0634 5.66427 63.8821 5.66427 63.8852 5.97683C63.8852 6.93951 63.8852 7.90218 63.8852 8.86486C63.8809 8.90642 63.885 8.94843 63.8972 8.98839C63.9095 9.02835 63.9296 9.06546 63.9564 9.09751C63.9832 9.12957 64.0162 9.15592 64.0533 9.17501C64.0905 9.1941 64.1311 9.20555 64.1728 9.20867C65.0605 9.36495 65.3574 9.72439 65.373 10.6214V26.7775C65.3746 26.9675 65.3652 27.1575 65.3449 27.3464C65.2574 28.2028 65.0667 28.4122 64.2228 28.5497C63.979 28.5903 63.879 28.6904 63.8821 28.9404C63.8821 29.8781 63.8821 30.8158 63.8821 31.7534C63.8821 32.0941 63.9196 32.1316 64.2634 32.1316H78.0785C78.4285 32.1316 78.4629 32.1004 78.466 31.7597C78.466 30.0469 78.466 28.3216 78.466 26.6181C78.466 26.3431 78.3723 26.2462 78.1003 26.2524C77.2408 26.2524 76.3844 26.2524 75.5249 26.2524C75.2467 26.2524 75.1529 26.3587 75.1623 26.6244C75.1798 27.0345 75.1227 27.4443 74.9935 27.834C74.9438 28.0618 74.8139 28.2642 74.6274 28.4042C74.441 28.5442 74.2104 28.6125 73.9777 28.5966C72.815 28.5966 71.6523 28.5966 70.4896 28.5966C70.2552 28.5966 70.177 28.4935 70.177 28.2684C70.177 25.8221 70.177 23.3738 70.177 20.9233C70.177 20.6795 70.2739 20.5826 70.5177 20.5858H74.0058C74.1205 20.5894 74.2346 20.604 74.3465 20.6295C74.515 20.659 74.6722 20.734 74.8011 20.8464C74.93 20.9588 75.0257 21.1043 75.0779 21.2671C75.1609 21.5306 75.1916 21.8077 75.1686 22.0829C75.1686 22.3486 75.253 22.4642 75.5311 22.4611C76.3907 22.4611 77.2471 22.4611 78.1066 22.4611C78.3816 22.4611 78.4692 22.358 78.4692 22.0892C78.4692 19.8804 78.4692 17.6706 78.4692 15.4598C78.4692 15.1879 78.3754 15.0879 78.1035 15.0941C77.3315 15.0941 76.5563 15.0941 75.7843 15.0941C75.1186 15.0941 75.1748 15.0941 75.1592 15.6974C75.1623 15.7536 75.1623 15.8099 75.1592 15.8661C75.0904 16.5319 74.7404 16.8663 74.0746 16.8694C72.8931 16.8694 71.7117 16.8694 70.5302 16.8694C70.2708 16.8694 70.1739 16.7788 70.1739 16.5194C70.1739 14.1835 70.1739 11.8498 70.1739 9.5181C70.1739 9.26806 70.277 9.18367 70.5177 9.18679C71.6023 9.18679 72.7056 9.18679 73.7777 9.18679C74.0616 9.17781 74.3401 9.26578 74.5674 9.43621C74.7946 9.60665 74.957 9.84939 75.0279 10.1245C75.1101 10.3392 75.1546 10.5666 75.1592 10.7965C75.1592 11.0559 75.278 11.1403 75.528 11.1372C76.3782 11.1372 77.2252 11.1372 78.0753 11.1372C78.4379 11.1372 78.4629 11.109 78.466 10.7433V6.11748C78.466 5.67365 78.466 5.66427 78.0191 5.66427H71.1897ZM174.071 5.66427C172.671 5.66427 171.258 5.66427 169.867 5.66427C169.642 5.66427 169.501 5.71428 169.505 5.97683C169.505 6.94576 169.505 7.91781 169.505 8.88986C169.499 8.93019 169.503 8.97116 169.514 9.01019C169.525 9.04921 169.545 9.08545 169.571 9.11659C169.597 9.14773 169.629 9.17311 169.666 9.19111C169.702 9.20911 169.742 9.21935 169.783 9.22117C170.056 9.26012 170.306 9.39578 170.487 9.60345C170.668 9.81111 170.769 10.077 170.77 10.3526C170.814 10.8376 170.786 11.3263 170.686 11.8029L168.061 25.5242C167.965 26.1264 167.825 26.7209 167.642 27.3026C167.414 27.9527 167.017 28.4434 166.298 28.5528C166.257 28.5545 166.217 28.5648 166.181 28.5831C166.144 28.6013 166.112 28.6271 166.086 28.6587C166.061 28.6904 166.042 28.7271 166.032 28.7665C166.021 28.8059 166.019 28.8471 166.026 28.8873C166.026 29.8593 166.026 30.8283 166.026 31.8003C166.026 32.0347 166.126 32.1129 166.338 32.1129C168.347 32.1129 170.359 32.1129 172.374 32.1129C172.621 32.1129 172.711 32.0097 172.708 31.7691C172.708 30.8314 172.708 29.8656 172.708 28.9123C172.708 28.6935 172.64 28.5653 172.396 28.556C172.301 28.549 172.207 28.5344 172.114 28.5122C171.907 28.4942 171.713 28.3987 171.573 28.2447C171.432 28.0907 171.354 27.8894 171.355 27.6808C171.343 27.2524 171.395 26.8245 171.511 26.4118C171.514 26.3554 171.529 26.3002 171.555 26.25C171.581 26.1998 171.618 26.1556 171.662 26.1205C171.706 26.0853 171.758 26.06 171.812 26.0461C171.867 26.0322 171.924 26.0301 171.98 26.0399C173.008 26.0399 174.04 26.0399 175.068 26.0399C175.893 26.0399 175.962 26.0961 176.156 26.9057C176.173 26.9798 176.185 27.055 176.193 27.1307C176.268 27.9215 175.956 28.3591 175.178 28.5278C174.977 28.5685 174.884 28.6466 174.887 28.8654C174.887 29.8375 174.887 30.8095 174.887 31.7784C174.887 32.0097 174.968 32.091 175.199 32.091C177.61 32.091 180.022 32.091 182.435 32.091C182.67 32.091 182.748 31.9941 182.748 31.7784C182.748 30.8095 182.748 29.8385 182.748 28.8654C182.754 28.8254 182.753 28.7844 182.743 28.745C182.732 28.7057 182.714 28.6689 182.689 28.6368C182.665 28.6048 182.633 28.5783 182.597 28.559C182.562 28.5397 182.522 28.5281 182.482 28.5247C182.225 28.4719 181.985 28.3595 181.78 28.1967C181.574 28.0338 181.41 27.825 181.301 27.587C181.065 27.0556 180.905 26.4938 180.825 25.918C179.784 21.2338 178.742 16.5454 177.7 11.8529C177.558 11.2984 177.486 10.7282 177.487 10.1557C177.506 9.57749 177.722 9.29619 178.244 9.21805C178.522 9.17429 178.581 9.04302 178.578 8.7961C178.578 7.88968 178.578 6.98639 178.578 6.07997C178.578 5.67052 178.559 5.65177 178.134 5.65177L174.071 5.66427ZM156.321 5.66427H152.145C151.933 5.66427 151.764 5.68615 151.767 5.9612C151.767 6.94263 151.767 7.92406 151.767 8.90549C151.76 8.98083 151.783 9.05589 151.831 9.1144C151.879 9.17291 151.948 9.21015 152.023 9.21805C152.31 9.26081 152.571 9.40732 152.756 9.62975C152.942 9.85218 153.039 10.135 153.03 10.4245C153.059 10.8428 153.034 11.263 152.955 11.6747C152.686 13.0969 152.423 14.519 152.151 15.9412C151.51 19.2751 150.868 22.6143 150.226 25.9586C150.142 26.4941 149.997 27.0184 149.795 27.5214C149.704 27.7848 149.543 28.0185 149.33 28.197C149.116 28.3755 148.857 28.4921 148.582 28.5341C148.341 28.5685 148.269 28.706 148.269 28.931C148.269 29.8687 148.269 30.8064 148.269 31.7441C148.269 32.091 148.304 32.1254 148.648 32.1254H154.571C154.927 32.1254 154.964 32.0879 154.964 31.7316C154.964 30.8856 154.964 30.0375 154.964 29.1873C154.964 28.5622 154.983 28.6185 154.411 28.531C154.303 28.5285 154.195 28.5047 154.096 28.4607C153.997 28.4168 153.907 28.3537 153.832 28.275C153.757 28.1963 153.698 28.1035 153.659 28.0021C153.62 27.9007 153.602 27.7926 153.605 27.6839C153.596 27.2618 153.649 26.8407 153.761 26.4337C153.811 26.1462 153.952 26.043 154.246 26.0461C155.311 26.0461 156.38 26.0461 157.449 26.0461C158.124 26.0461 158.19 26.0961 158.387 26.7494C158.416 26.852 158.439 26.9564 158.456 27.0619C158.571 27.8777 158.253 28.3559 157.446 28.5372C157.398 28.5395 157.351 28.552 157.309 28.574C157.266 28.5959 157.229 28.6267 157.199 28.6644C157.17 28.702 157.148 28.7456 157.137 28.7921C157.126 28.8387 157.125 28.8871 157.134 28.9342C157.134 29.8718 157.134 30.8095 157.134 31.7472C157.134 32.0941 157.168 32.1285 157.509 32.1285H164.632C164.838 32.1285 165.016 32.1285 165.013 31.8378C165.013 30.8501 165.013 29.8593 165.013 28.8685C165.018 28.8307 165.015 28.7924 165.004 28.7558C164.994 28.7193 164.976 28.6853 164.951 28.656C164.927 28.6267 164.897 28.6027 164.863 28.5855C164.829 28.5683 164.792 28.5582 164.754 28.556C164.499 28.5157 164.259 28.4078 164.06 28.2434C163.614 27.8327 163.324 27.2807 163.238 26.6806L162.356 22.6924C161.559 19.0574 160.706 15.4317 159.95 11.7873C159.82 11.2439 159.764 10.6858 159.781 10.1276C159.812 9.58374 160.025 9.30869 160.525 9.23055C160.812 9.18679 160.878 9.05552 160.875 8.79297C160.875 7.89906 160.875 7.00202 160.875 6.1081C160.875 5.68928 160.856 5.66427 160.444 5.66427H156.321ZM107.946 18.0197C107.946 15.1025 107.946 12.179 107.946 9.2493C107.946 8.81172 108.034 8.74609 108.459 8.84923C109.178 9.01801 109.562 9.47435 109.669 10.3245C109.719 10.7277 109.741 10.7496 110.15 10.7496H112.382C112.766 10.7496 112.791 10.7246 112.794 10.3495V6.06122C112.794 5.68302 112.772 5.66427 112.382 5.66427H98.9104C98.5291 5.66427 98.5041 5.6924 98.5041 6.0706C98.5041 7.48961 98.5041 8.90862 98.5041 10.3276C98.5041 10.7214 98.5322 10.7465 98.9292 10.7496H100.989C101.652 10.7496 101.545 10.7496 101.645 10.1932C101.668 10.0625 101.701 9.93395 101.745 9.80878C101.834 9.53929 101.999 9.30171 102.222 9.12556C102.444 8.9494 102.713 8.84245 102.996 8.81798C103.205 8.78672 103.333 8.85548 103.324 9.0899C103.324 9.16491 103.324 9.23993 103.324 9.31807V26.7744C103.324 26.9244 103.324 27.0869 103.308 27.2307C103.301 27.5488 103.184 27.8546 102.976 28.0958C102.769 28.337 102.484 28.4986 102.17 28.5528C102.125 28.5551 102.081 28.567 102.041 28.5879C102.001 28.6087 101.966 28.6379 101.939 28.6736C101.911 28.7092 101.892 28.7504 101.881 28.7943C101.871 28.8382 101.871 28.8838 101.88 28.9279C101.88 29.8656 101.88 30.8033 101.88 31.7409C101.88 32.1035 101.908 32.1348 102.27 32.1348C104.53 32.1348 106.79 32.1348 109.047 32.1348C109.319 32.1348 109.422 32.0441 109.419 31.7691C109.419 30.8314 109.419 29.8937 109.419 28.956C109.429 28.9097 109.429 28.8615 109.418 28.8152C109.407 28.769 109.386 28.7258 109.355 28.689C109.325 28.6523 109.287 28.6229 109.244 28.6031C109.201 28.5832 109.154 28.5736 109.106 28.5747C108.839 28.5363 108.592 28.4137 108.399 28.2248C108.207 28.0359 108.08 27.7906 108.037 27.5245C107.965 27.1888 107.934 26.8457 107.943 26.5025L107.946 18.0197Z" fill="#71789C"/>
<path d="M190.099 13.1156C190.099 11.956 190.099 10.7933 190.099 9.63367C190.099 9.22422 190.127 9.19922 190.54 9.19922C191.196 9.19922 191.856 9.19922 192.512 9.19922C193.284 9.19922 193.619 9.4774 193.797 10.2338C193.914 10.8421 193.96 11.462 193.934 12.081C193.934 13.1562 193.934 14.2314 193.934 15.3066C193.934 16.4349 193.456 16.9913 192.331 17.0788C191.678 17.1288 191.018 17.0788 190.362 17.0788C190.109 17.0788 190.099 16.9038 190.099 16.7256V13.1156Z" fill="#71789C"/>
<path d="M13.8167 18.9198V9.71808C13.8167 9.20236 13.8166 9.19611 14.348 9.19611H17.0672C17.7705 9.19611 18.1237 9.50866 18.2112 10.2025C18.2507 10.4947 18.2716 10.7891 18.2737 11.084C18.2737 16.2474 18.2737 21.4108 18.2737 26.5743C18.2763 26.8219 18.2617 27.0694 18.23 27.3151C18.1112 28.1089 17.7267 28.5215 16.9172 28.5653C15.9795 28.6122 15.0419 28.5653 14.0854 28.584C14.0499 28.5891 14.0137 28.5859 13.9796 28.5747C13.9456 28.5635 13.9145 28.5447 13.8888 28.5197C13.8632 28.4946 13.8436 28.464 13.8316 28.4302C13.8196 28.3963 13.8156 28.3602 13.8198 28.3246C13.8198 28.209 13.8198 28.0933 13.8198 27.9808L13.8167 18.9198Z" fill="#71789C"/>
<path d="M173.718 15.4161C173.824 15.8662 173.924 16.2787 174.03 16.6944C174.462 18.5885 174.891 20.4816 175.318 22.3736C175.396 22.7143 175.378 22.7455 175.006 22.7518C174.112 22.7518 173.218 22.7705 172.324 22.7862C172.052 22.7862 172.096 22.6268 172.13 22.4736C172.338 21.4318 172.558 20.3899 172.79 19.348C173.046 18.1385 173.308 16.932 173.568 15.7224C173.566 15.663 173.579 15.6042 173.605 15.5508C173.631 15.4975 173.67 15.4513 173.718 15.4161V15.4161Z" fill="#71789C"/>
<path d="M155.977 15.4099C156.09 15.9006 156.199 16.3475 156.29 16.8007C156.706 18.6177 157.123 20.4358 157.54 22.2549C157.643 22.7143 157.615 22.7487 157.149 22.7549C156.302 22.7549 155.452 22.7549 154.605 22.7831C154.349 22.7831 154.324 22.6737 154.367 22.4705C154.655 21.1484 154.933 19.8263 155.215 18.5073C155.415 17.5696 155.611 16.632 155.812 15.7162C155.813 15.6556 155.828 15.5961 155.857 15.5428C155.886 15.4895 155.927 15.4439 155.977 15.4099V15.4099Z" fill="#71789C"/>
</svg>
