<svg width="140" height="33" viewBox="0 0 140 33" fill="none" xmlns="http://www.w3.org/2000/svg">
<path d="M17.6367 32.8158C6.41201 32.806 -2.14243 22.2125 0.474397 11.5462C2.21733 4.32686 8.81522 -0.426147 16.4424 0.0302195C23.482 0.452601 29.6042 6.31254 30.3227 13.4493C30.578 15.5492 30.3827 17.6794 29.7498 19.6978C29.1169 21.7162 28.061 23.5765 26.6523 25.1546C26.1668 25.6838 26.1183 26.0237 26.6523 26.4995C27.1864 26.9752 27.6525 27.5481 28.2059 28.0142C28.8856 28.5919 28.7448 28.9852 28.0797 29.4464C25.0442 31.6489 21.387 32.8289 17.6367 32.8158V32.8158ZM13.8644 24.6886C15.3209 24.6886 16.7773 24.7662 18.2338 24.6886C20.5302 24.5332 22.6567 23.9118 23.5743 21.4843C24.4288 19.1782 23.7151 17.2945 21.7246 15.8865C21.2391 15.5321 21.5206 15.2699 21.7925 14.9786C22.3109 14.4411 22.666 13.7675 22.8164 13.036C22.9668 12.3046 22.9064 11.5455 22.6421 10.8471C21.9042 8.56038 20.0447 7.74475 17.9183 7.63309C15.0053 7.48258 12.1312 7.58454 9.23274 7.56997C8.67928 7.56997 8.40255 7.81757 8.4074 8.38075C8.4074 8.72545 8.4074 9.07015 8.4074 9.41486C8.4074 10.0169 8.56276 10.4295 9.26673 10.3858C9.9707 10.3422 10.0727 10.784 10.0727 11.3277C10.0727 14.5352 10.0727 17.7411 10.0727 20.9454C10.0727 21.4988 9.89787 21.8338 9.25216 21.8872C7.83452 21.9989 8.54819 23.1155 8.43168 23.805C8.31516 24.4944 8.82007 24.7225 9.46578 24.7177C10.898 24.674 12.3836 24.6886 13.8644 24.6886Z" fill="#71789C"/>
<path d="M44.8438 16.0226C44.8438 14.2651 44.8438 12.5027 44.8438 10.7452C44.8438 10.0073 44.6739 9.53636 43.8146 9.58976C43.1494 9.63346 42.897 9.26448 42.9213 8.61877C42.9213 8.09929 42.9213 7.58466 42.9213 7.06518C42.9213 5.78833 43.0184 5.68637 44.2515 5.67666C47.5626 5.67666 50.8737 5.64268 54.1848 5.8126C57.4958 5.98253 59.7194 7.72546 60.2632 10.5608C60.4192 11.2679 60.406 12.0019 60.2246 12.703C60.0432 13.4041 59.6988 14.0525 59.2194 14.5952C58.7824 15.0807 58.7047 15.3575 59.3067 15.775C61.2487 17.1344 61.8119 19.1055 61.4429 21.3339C61.074 23.5623 59.6951 24.8343 57.6706 25.616C55.5393 26.4413 53.3012 26.1792 51.1213 26.3054C48.8492 26.4316 46.5673 26.3394 44.2904 26.3054C43.0572 26.3054 42.9698 26.1937 42.9601 24.9169C42.9601 24.5382 42.9892 24.1546 42.9601 23.7808C42.8776 22.8875 43.0718 22.2952 44.1593 22.3632C44.8535 22.4069 44.873 21.8777 44.873 21.3533L44.8438 16.0226ZM50.1066 19.8629C50.1066 20.4115 50.1066 20.9649 50.1066 21.5184C50.1066 21.8582 50.2134 22.1738 50.5921 22.1787C51.8981 22.1787 53.2235 22.402 54.4761 21.9893C54.9723 21.8183 55.3913 21.4761 55.6582 21.0242C55.9251 20.5723 56.0223 20.0401 55.9326 19.523C55.8257 18.4161 55.2577 17.8675 54.0343 17.7073C53.5228 17.6299 53.0073 17.5812 52.4904 17.5616C49.6163 17.4791 50.1552 17.3286 50.1066 19.8386V19.8629ZM52.1166 13.7165C52.4224 13.7165 52.7331 13.7165 53.0439 13.7165C54.3644 13.6679 55.1412 12.9057 55.1218 11.6822C55.1218 10.5705 54.3644 9.89562 53.0875 9.83736C52.7428 9.83736 52.403 9.83736 52.0583 9.83736C49.8299 9.83736 50.1163 9.72084 50.1163 11.7793C50.0969 13.901 49.8784 13.6825 52.1166 13.6922V13.7165Z" fill="#71789C"/>
<path d="M81.9162 10.784C83.5458 10.6681 85.1735 11.0345 86.5964 11.8375C87.9769 12.6145 89.083 13.7998 89.7628 15.2307C90.4426 16.6616 90.6627 18.2678 90.3929 19.8288C90.1965 21.3833 89.5198 22.8378 88.4571 23.9892C87.3944 25.1407 85.9988 25.9317 84.465 26.2519C81.3627 26.9899 78.4692 26.5578 75.9931 24.4653C73.6433 22.4893 72.8617 18.9646 73.9249 15.8283C74.8668 13.0659 77.6875 10.9734 80.785 10.784C81.1539 10.7597 81.5521 10.784 81.9162 10.784ZM82.0036 14.9836C79.9936 14.9593 78.7313 16.3866 78.741 18.683C78.741 20.8678 80.0227 22.3145 81.9744 22.3388C83.8436 22.3631 85.1787 20.8823 85.1933 18.7801C85.203 16.474 83.9795 15.0078 82.0036 14.9836Z" fill="#71789C"/>
<path d="M100.341 10.7889C102.039 10.6748 103.732 11.0776 105.196 11.9443C108.031 13.6339 109.08 16.2604 108.837 19.4064C108.595 22.5524 106.861 24.9071 103.788 25.9703C100.438 27.1306 97.1854 26.8345 94.4423 24.4556C91.8206 22.1737 91.34 19.1831 92.3547 15.9545C92.8396 14.5027 93.7535 13.2321 94.9757 12.3107C96.1979 11.3892 97.671 10.8603 99.2002 10.7937C99.5837 10.7646 99.9624 10.7889 100.341 10.7889ZM100.399 14.9835C98.4574 14.9835 97.1999 16.3672 97.1562 18.6199C97.1077 20.7901 98.4816 22.3388 100.448 22.3388C102.327 22.3388 103.604 20.8823 103.623 18.7413C103.647 16.4643 102.385 14.9932 100.399 14.9835Z" fill="#71789C"/>
<path d="M119.358 21.5281C119.979 19.4308 120.598 17.327 121.213 15.2167C121.256 15.1193 121.259 15.0089 121.222 14.9091C121.185 14.8093 121.11 14.728 121.014 14.6826C120.654 14.5467 120.266 14.4739 120.261 13.9738C120.182 13.1165 120.204 12.253 120.324 11.4007C120.402 11.0317 120.776 11.0074 121.086 11.0074C123.227 11.0074 125.368 11.0074 127.509 11.0074C128.179 11.0074 128.442 11.3327 128.408 11.9784C128.383 12.3227 128.383 12.6682 128.408 13.0125C128.51 14.0418 128.349 14.804 127.024 14.6341C126.407 14.5612 126.228 15.0662 126.053 15.5322C124.901 18.6394 123.752 21.745 122.606 24.8489C122.077 26.3054 121.849 26.451 120.314 26.3054C119.388 26.2132 118.454 26.2132 117.528 26.3054C116.139 26.4316 115.882 26.2326 115.387 24.9266C114.221 21.8291 113.027 18.7365 111.886 15.6293C111.619 14.9108 111.236 14.5175 110.43 14.6146C109.624 14.7117 109.265 14.3331 109.269 13.4932C109.269 10.619 109.153 11.0365 111.697 11.0123C113.493 11.0123 115.29 11.0123 117.081 11.0123C117.897 11.0123 118.329 11.2502 118.251 12.1386C118.207 12.6872 118.251 13.2407 118.251 13.7942C118.251 14.1 118.251 14.4884 117.877 14.5564C117.081 14.702 117.222 15.1633 117.392 15.707C117.974 17.649 118.533 19.591 119.101 21.533L119.358 21.5281Z" fill="#71789C"/>
<path d="M70.143 14.1922C70.143 16.6197 70.1673 19.0471 70.143 21.4358C70.143 22.2514 70.3566 22.6884 71.2451 22.5961C71.9928 22.5184 72.2938 22.868 72.2792 23.6254C72.2355 26.6403 72.5802 26.1645 69.7886 26.1985C67.7884 26.1985 65.7881 26.1985 63.783 26.1985C62.9965 26.1985 62.613 25.946 62.6664 25.1304C62.6955 24.7523 62.6955 24.3725 62.6664 23.9943C62.5839 23.0234 62.9431 22.465 64.0112 22.5718C64.686 22.6398 64.9142 22.3 64.9142 21.6494C64.8948 17.6845 64.8948 13.718 64.9142 9.7499C64.9142 9.04593 64.6763 8.70123 63.9432 8.77891C62.9722 8.88572 62.7732 8.39051 62.7926 7.54089C62.8703 4.40945 62.3605 4.81726 65.5405 4.78328C66.3659 4.78328 67.1961 4.78328 68.0214 4.78328C69.6235 4.83183 70.1285 5.33189 70.1382 6.91946C70.1527 9.3615 70.143 11.7793 70.143 14.1922Z" fill="#71789C"/>
<path d="M134.214 26.218C133.01 26.218 131.786 26.218 130.597 26.218C129.888 26.218 129.577 25.9412 129.597 25.247C129.621 24.833 129.621 24.418 129.597 24.0041C129.514 23.0331 129.815 22.4651 130.913 22.5962C131.587 22.6738 131.82 22.334 131.816 21.6786C131.793 19.6427 131.793 17.6101 131.816 15.5808C131.816 14.8622 131.515 14.5515 130.845 14.634C129.83 14.7506 129.641 14.1825 129.631 13.3281C129.602 11.0025 129.577 10.9977 131.903 11.0025C132.971 11.0025 134.039 11.0025 135.107 11.0025C136.418 11.0317 136.884 11.4006 136.972 12.6969C137.117 15.2742 137.127 17.8574 137.001 20.4357C137.001 20.8144 136.972 21.1931 136.942 21.5718C136.899 22.2418 137.137 22.6593 137.875 22.5913C138.821 22.5039 139.035 22.9943 139.015 23.839C138.962 26.5093 139.263 26.1694 136.724 26.1985L134.214 26.218Z" fill="#71789C"/>
<path d="M134.423 10.1965C133.571 10.1641 132.765 9.80514 132.171 9.19405C131.577 8.58296 131.241 7.76668 131.233 6.91457C131.277 6.06318 131.646 5.26102 132.264 4.67376C132.882 4.0865 133.701 3.75898 134.554 3.75885C135.386 3.803 136.171 4.1613 136.749 4.76143C137.328 5.36155 137.657 6.15881 137.671 6.99225C137.654 7.84448 137.306 8.65654 136.699 9.25518C136.092 9.85381 135.275 10.1916 134.423 10.1965V10.1965Z" fill="#71789C"/>
<path d="M13.9858 19.4549C13.9858 17.2167 13.9858 17.207 16.2385 17.2313C16.7558 17.2295 17.2723 17.2717 17.7824 17.3575C18.967 17.5809 19.4962 18.2023 19.5108 19.2995C19.5411 19.8049 19.3929 20.305 19.0921 20.7122C18.7912 21.1195 18.3569 21.4082 17.865 21.5279C17.4239 21.6133 16.978 21.6717 16.5298 21.7027C14.1995 21.9795 13.9858 21.7853 13.9858 19.4549Z" fill="#71789C"/>
<path d="M15.9811 10.5948C16.3596 10.5753 16.7388 10.5753 17.1172 10.5948C17.3425 10.6035 17.5639 10.6567 17.7686 10.7514C17.9732 10.8461 18.1571 10.9803 18.3097 11.1464C18.4622 11.3125 18.5804 11.5071 18.6574 11.7191C18.7343 11.931 18.7686 12.1561 18.7582 12.3814C18.7953 12.8482 18.6502 13.3112 18.3533 13.6733C18.0564 14.0354 17.6308 14.2684 17.1658 14.3234C16.9255 14.3492 16.684 14.3606 16.4424 14.3574C13.9421 14.4011 13.9809 14.4011 13.9712 11.9056C13.9712 10.8861 14.3159 10.42 15.3597 10.5462C15.5667 10.5584 15.7742 10.5584 15.9811 10.5462V10.5948Z" fill="#71789C"/>
</svg>
