<svg width="180" height="47" viewBox="0 0 180 47" fill="none" xmlns="http://www.w3.org/2000/svg">
<path d="M180 0.000957711C180 15.3363 180 30.6686 180 45.9978C180 46.2411 179.945 46.2961 179.702 46.2961H0.000979109C0.000979109 46.1217 0.000979109 45.9519 0.000979109 45.7775V0.671037C0.000979109 -0.0541173 -0.0540959 0.000957711 0.66188 0.000957711H179.481C179.656 0.000957711 179.826 0.000957711 180 0.000957711ZM42.7163 26.85C42.7163 22.3033 42.7163 17.7565 42.7163 13.2098C42.7163 12.7508 42.7163 12.7508 43.1752 12.7508H46.0254C46.4109 12.7508 46.4522 12.7141 46.4522 12.324V5.2285C46.4522 4.76954 46.4063 4.74659 45.9657 4.74659H30.0261C29.5946 4.74659 29.5671 4.78331 29.5671 5.20555C29.5671 7.58755 29.5671 9.96954 29.5671 12.3515C29.5671 12.6453 29.6681 12.7508 29.9618 12.7462C30.8384 12.7462 31.7104 12.7462 32.5825 12.7462C33.1791 12.7462 33.1791 12.7462 33.1791 13.3567V19.7362C33.1791 20.801 33.1791 21.8658 33.1791 22.9489C33.1791 23.082 33.2066 23.2518 33.0139 23.2885C32.8211 23.3252 32.789 23.1967 32.7247 23.082C31.8435 21.4527 30.9577 19.8234 30.0811 18.1941C29.2045 16.5648 28.3738 15.0181 27.5385 13.4347C26.3682 11.2638 25.1886 9.09752 24.0275 6.92206C23.7224 6.26039 23.2306 5.70236 22.6125 5.31665C21.9944 4.93093 21.277 4.73438 20.5486 4.75118H6.58704C6.12808 4.75118 6.12808 4.75118 6.12808 5.21014C6.12808 7.57837 6.12808 9.94812 6.12808 12.3194C6.12808 12.7187 6.15103 12.7462 6.54573 12.7462H9.45553C9.99251 12.7462 9.99251 12.7462 9.99251 13.2832V32.4448C9.99251 32.9358 9.99251 32.945 9.48307 32.945H6.6054C6.14644 32.945 6.1189 32.945 6.1189 33.4407V40.4903C6.1189 40.986 6.1189 40.9906 6.63293 40.9906H16.73C18.7999 40.9906 20.8607 40.9906 22.9443 40.9906C23.2381 40.9906 23.3712 40.9125 23.3712 40.5913C23.3712 38.168 23.3712 35.7431 23.3712 33.3168C23.3712 33.0414 23.2702 32.9358 22.9902 32.9358C22.1044 32.9358 21.2232 32.9358 20.3374 32.9358C19.4516 32.9358 19.5113 32.9358 19.5113 32.1005V23.9311C19.5113 22.8234 19.5113 21.7143 19.5113 20.6036C19.5113 20.4797 19.5113 20.3282 19.6674 20.2915C19.8234 20.2548 19.8968 20.365 19.9657 20.4843C20.1676 20.8606 20.3787 21.237 20.5853 21.6179C21.6409 23.5914 22.698 25.565 23.7567 27.5385C24.7159 29.3238 25.6843 31.1 26.6435 32.8854C27.745 34.9231 28.8282 36.9701 29.948 38.9941C30.2799 39.6549 30.8114 40.1945 31.4672 40.5362C32.1981 40.8633 32.9937 41.0202 33.7941 40.9952C36.5983 40.9952 39.4026 40.9952 42.2068 40.9952C42.7117 40.9952 42.7117 40.9952 42.7117 40.4949C42.7147 35.9451 42.7163 31.3968 42.7163 26.85ZM84.0226 23.004C84.0226 21.5506 84.0226 20.0957 84.0226 18.6393C84.0226 18.5154 83.9583 18.3272 84.0914 18.2859C84.2245 18.2446 84.2979 18.4419 84.3622 18.5567C85.0552 19.7729 85.7391 20.9937 86.4321 22.2283C87.5887 24.2615 88.7544 26.2855 89.9064 28.3187C90.448 29.2688 90.2139 29.1035 91.2833 29.1219C91.7881 29.1219 91.7927 29.1219 91.7927 28.6216C91.7927 24.1361 91.7927 19.6536 91.7927 15.1741C91.7682 14.9703 91.8128 14.7641 91.9193 14.5885C92.0258 14.413 92.1881 14.2782 92.3802 14.2057C92.7519 14.068 92.5913 13.7468 92.5913 13.476C92.5913 13.2052 92.371 13.2511 92.2012 13.2511C91.3475 13.2511 90.4939 13.2511 89.6448 13.2511C89.475 13.2511 89.2593 13.1731 89.1858 13.4393C89.0986 13.8064 89.1858 14.1093 89.4291 14.2195C89.6005 14.2888 89.747 14.4083 89.8493 14.5622C89.9517 14.7162 90.0052 14.8975 90.0028 15.0823C90.0028 17.4643 90.0028 19.8463 90.0028 22.2283C90.0028 22.3201 90.0028 22.4532 89.9156 22.4808C89.8284 22.5083 89.7733 22.3706 89.7274 22.2926C89.397 21.7097 89.0711 21.1268 88.7452 20.5439L86.7258 16.9365C86.0787 15.7891 85.4316 14.6417 84.789 13.4989C84.7481 13.4142 84.6821 13.3441 84.6 13.2981C84.5179 13.2522 84.4237 13.2325 84.3301 13.2419C83.4902 13.2419 82.6503 13.2419 81.8058 13.2419C81.6589 13.2419 81.4616 13.2419 81.4524 13.4301C81.4432 13.6183 81.2872 14.0313 81.5947 14.1598C81.8198 14.2522 82.0069 14.4183 82.1254 14.6309C82.2438 14.8436 82.2864 15.0901 82.2464 15.3302C82.2464 19.3078 82.2464 23.2946 82.2464 27.2906C82.2808 27.5212 82.2366 27.7566 82.1209 27.9589C82.0051 28.1613 81.8246 28.3187 81.6084 28.4059C81.3698 28.5023 81.4248 28.7226 81.4478 28.9108C81.4707 29.0989 81.6222 29.1081 81.7691 29.1081H84.5228C84.6651 29.1081 84.8257 29.1081 84.8395 28.9154C84.8533 28.7226 84.9313 28.4885 84.6651 28.383C84.4515 28.3028 84.2715 28.1524 84.1547 27.9563C84.0379 27.7603 83.9913 27.5304 84.0226 27.3044C84.018 25.8679 84.0134 24.4359 84.0134 23.004H84.0226ZM53.4284 21.3196V27.2861C53.464 27.5126 53.4193 27.7444 53.3019 27.9414C53.1846 28.1384 53.002 28.2881 52.7858 28.3646C52.5196 28.461 52.5839 28.6905 52.6022 28.8878C52.6206 29.0852 52.795 29.0852 52.9465 29.0852H56.2142C56.3795 29.0852 56.5631 29.0852 56.5722 28.8603C56.5814 28.6354 56.6457 28.438 56.3749 28.3417C56.1716 28.276 55.9977 28.1416 55.8829 27.9614C55.7681 27.7813 55.7197 27.5668 55.7461 27.3549C55.7461 25.6843 55.7461 24.0137 55.7461 22.3431C55.7461 22.0952 55.8471 21.9897 56.0903 21.9897H59.6656C59.9272 21.9897 60.0236 22.0998 60.0236 22.3614C60.0236 24.0183 60.0236 25.6797 60.0236 27.3365C60.055 27.5539 60.0074 27.7753 59.8895 27.9605C59.7716 28.1458 59.5912 28.2826 59.3811 28.3462C59.1103 28.4334 59.1837 28.6721 59.1975 28.8695C59.2112 29.0668 59.3719 29.0852 59.5279 29.0852H62.8278C62.9839 29.0852 63.1537 29.0852 63.1675 28.8741C63.1812 28.6629 63.2455 28.4656 63.0022 28.3692C62.7797 28.2803 62.5933 28.1195 62.4727 27.9124C62.3521 27.7053 62.3043 27.4638 62.3368 27.2264C62.3368 23.2487 62.3368 19.2711 62.3368 15.2935C62.3124 15.0618 62.3624 14.8284 62.4796 14.627C62.5968 14.4257 62.775 14.2669 62.9885 14.1736C63.3281 14.013 63.1675 13.6779 63.1583 13.4209C63.1491 13.1639 62.9242 13.2373 62.7728 13.2373H59.6014C59.4407 13.2373 59.2067 13.1868 59.2021 13.4393C59.1975 13.6917 59.0414 14.0313 59.3902 14.1874C59.5877 14.2658 59.7551 14.405 59.8681 14.5849C59.9812 14.7648 60.034 14.976 60.019 15.1879C60.019 16.8034 60.019 18.4006 60.019 20.0345C60.019 20.3145 59.8813 20.3787 59.6381 20.3741C58.5136 20.3741 57.3938 20.3512 56.2739 20.342C55.7277 20.342 55.7277 20.342 55.7277 19.8096C55.7277 18.3134 55.7277 16.8126 55.7277 15.3164C55.7019 15.0804 55.7521 14.8423 55.8709 14.6367C55.9898 14.4312 56.1712 14.2689 56.3886 14.1736C56.7145 14.0176 56.5539 13.7146 56.5585 13.4439C56.5631 13.1731 56.3519 13.2373 56.1913 13.2373H52.9556C52.8088 13.2373 52.6068 13.2098 52.5976 13.4163C52.5885 13.6229 52.437 14.0221 52.7399 14.1507C53.3274 14.4031 53.4238 14.862 53.4238 15.4128C53.4207 17.3771 53.4192 19.3461 53.4192 21.3196H53.4284ZM124.567 16.9733H122.731C122.58 16.9733 122.392 16.9733 122.392 17.1706C122.392 17.368 122.245 17.7122 122.543 17.8361C122.707 17.9058 122.85 18.0162 122.959 18.1567C123.068 18.2973 123.14 18.4634 123.167 18.6393C123.254 18.9697 123.337 19.3048 123.447 19.6306C123.534 19.8866 123.534 20.1641 123.447 20.42C123.121 21.5812 122.805 22.7424 122.479 23.9035C122.451 24.0091 122.442 24.1651 122.332 24.1697C122.222 24.1743 122.19 24.0045 122.162 23.9035C121.662 22.1549 121.171 20.4017 120.675 18.6485C120.613 18.5105 120.603 18.3545 120.648 18.2099C120.693 18.0653 120.789 17.9422 120.918 17.8636C121.184 17.6938 121.065 17.4047 121.042 17.1477C121.019 16.8906 120.804 16.9733 120.652 16.9733C119.661 16.9733 118.668 16.9733 117.673 16.9733C117.531 16.9733 117.357 16.9733 117.357 17.1568C117.357 17.3404 117.196 17.7214 117.49 17.8223C117.661 17.8881 117.811 17.9985 117.925 18.1423C118.039 18.286 118.112 18.4576 118.137 18.6393C118.33 19.2864 118.513 19.9427 118.697 20.5944C119.413 23.1462 120.127 25.6981 120.84 28.2499C121.079 29.1127 121.079 29.1035 121.937 29.1035C121.998 29.1119 122.06 29.108 122.119 29.0921C122.178 29.0762 122.233 29.0486 122.282 29.011C122.33 28.9733 122.37 28.9264 122.4 28.8729C122.43 28.8194 122.449 28.7605 122.456 28.6996C122.896 27.0902 123.34 25.4808 123.787 23.8714C123.879 23.5409 123.97 23.2105 124.067 22.8755C124.09 22.7837 124.099 22.646 124.2 22.6414C124.301 22.6368 124.315 22.7974 124.356 22.8846C124.369 22.916 124.379 22.9482 124.388 22.981C124.879 24.7297 125.379 26.4829 125.87 28.2361C126.118 29.1265 126.114 29.1219 127.045 29.1035C127.096 29.1093 127.147 29.1049 127.196 29.0906C127.245 29.0764 127.291 29.0526 127.331 29.0205C127.37 28.9885 127.403 28.9489 127.428 28.9041C127.452 28.8593 127.467 28.8101 127.472 28.7593C127.614 28.1856 127.77 27.6165 127.931 27.0428C128.647 24.3258 129.427 21.6087 130.152 18.8917C130.189 18.6846 130.268 18.4876 130.386 18.3135C130.504 18.1395 130.657 17.9924 130.836 17.882C131.13 17.7122 130.988 17.3909 130.965 17.1385C130.942 16.886 130.722 16.9778 130.57 16.9778C129.813 16.9778 129.06 16.9778 128.303 16.9778C127.968 16.9778 127.908 17.1247 127.913 17.4093C127.917 17.6938 127.913 17.8682 128.289 17.8682C129.005 17.8682 129.092 17.9967 128.918 18.7035L128.89 18.7953L127.513 23.7429C127.482 23.8689 127.444 23.993 127.399 24.1146C127.357 24.2248 127.289 24.2477 127.224 24.1146C127.188 24.0476 127.159 23.9768 127.137 23.9035C126.651 22.1824 126.16 20.4659 125.687 18.7402C125.499 18.0748 125.687 17.8499 126.348 17.8545C126.706 17.8545 126.715 17.6617 126.715 17.3955C126.715 17.1293 126.687 16.9365 126.357 16.9641C125.756 16.9824 125.15 16.9824 124.544 16.9824L124.567 16.9733ZM171.165 20.186V14.2287C171.165 14.1093 171.165 13.99 171.165 13.8707C171.166 13.8408 171.162 13.8109 171.151 13.7829C171.141 13.7548 171.125 13.7291 171.104 13.7073C171.084 13.6855 171.059 13.668 171.032 13.6559C171.004 13.6438 170.975 13.6372 170.945 13.6366C170.7 13.5911 170.449 13.6037 170.21 13.6733C169.43 14.0359 168.655 14.4169 167.883 14.7978C167.613 14.9355 167.64 15.1879 167.686 15.422C167.732 15.656 167.925 15.5964 168.081 15.601C168.664 15.601 168.829 15.7708 168.847 16.3537C168.847 16.8126 168.847 17.3037 168.847 17.7764C168.847 17.8912 168.879 18.0472 168.751 18.0931C168.622 18.139 168.563 17.9921 168.485 17.9049C168.055 17.4771 167.504 17.193 166.906 17.0919C166.309 16.9908 165.694 17.0776 165.148 17.3404C164.52 17.6812 163.98 18.1641 163.571 18.7505C163.162 19.337 162.896 20.0108 162.794 20.7184C162.46 22.4349 162.452 24.1989 162.771 25.9184C162.855 26.5848 163.098 27.2214 163.477 27.7754C163.857 28.3294 164.364 28.7847 164.955 29.1035C165.388 29.3661 165.888 29.4952 166.393 29.4748C166.898 29.4544 167.387 29.2853 167.796 28.9888C168.091 28.7884 168.351 28.542 168.567 28.259C168.618 28.1948 168.673 28.1076 168.774 28.1305C168.875 28.1535 168.87 28.2636 168.889 28.3417C168.924 28.5223 168.95 28.7046 168.967 28.8878C168.967 29.1402 169.109 29.1816 169.334 29.1265C170.325 28.8695 171.321 28.6308 172.312 28.3784C172.625 28.3004 172.675 28.1581 172.629 27.7175C172.602 27.4375 172.404 27.4788 172.225 27.4696C172.014 27.4891 171.803 27.4348 171.627 27.316C171.451 27.1972 171.322 27.0212 171.261 26.8179C171.188 26.5915 171.157 26.3534 171.17 26.1157L171.165 20.186ZM139.465 22.5312C139.465 24.2845 139.465 26.0423 139.465 27.7955C139.465 28.1718 139.465 28.5482 139.465 28.9291C139.465 29.1311 139.557 29.2091 139.759 29.2229C139.976 29.26 140.199 29.2452 140.409 29.1798C140.62 29.1144 140.812 29.0002 140.97 28.8465C141.177 28.6308 141.429 28.4748 141.672 28.2774C141.916 28.0801 141.998 28.1168 142.168 28.3279C142.602 28.9039 143.238 29.2929 143.949 29.4156C144.422 29.4737 144.902 29.421 145.351 29.2617C145.8 29.1024 146.207 28.8409 146.537 28.4977C147.272 27.7978 147.756 26.8751 147.914 25.8725C148.133 24.522 148.173 23.1487 148.034 21.7877C148.02 21.0366 147.857 20.2956 147.554 19.6084C147.25 18.9211 146.813 18.3014 146.267 17.7856C145.719 17.3086 145.019 17.0427 144.293 17.036C143.567 17.0293 142.862 17.2821 142.306 17.7489C142.186 17.859 142.067 18.1023 141.92 18.038C141.773 17.9738 141.842 17.7122 141.842 17.5378C141.842 16.3537 141.842 15.165 141.842 13.9808C141.842 13.8202 141.842 13.632 141.626 13.6137C141.383 13.5614 141.129 13.574 140.892 13.6504C140.089 14.013 139.29 14.3939 138.496 14.784C138.23 14.9125 138.317 15.1741 138.336 15.3898C138.354 15.6056 138.542 15.5688 138.689 15.5734C139.364 15.601 139.483 15.7249 139.483 16.4133C139.459 18.4542 139.445 20.4919 139.442 22.5267L139.465 22.5312ZM161.33 23.4492C161.33 22.2559 161.385 21.058 161.33 19.8647C161.311 19.3694 161.148 18.8902 160.862 18.4853C160.576 18.0804 160.179 17.7672 159.719 17.5837C158.48 17.0215 157.085 16.9079 155.772 17.2624C155.302 17.3482 154.861 17.5496 154.488 17.8485C154.115 18.1474 153.823 18.5343 153.637 18.9743C153.421 19.6304 153.349 20.3256 153.426 21.0121C153.426 21.1681 153.55 21.1911 153.679 21.1911H155.459C155.502 21.1977 155.546 21.1939 155.587 21.1802C155.628 21.1664 155.665 21.1431 155.695 21.1121C155.725 21.0811 155.747 21.0433 155.76 21.002C155.772 20.9606 155.775 20.9169 155.767 20.8744C155.767 20.6128 155.767 20.3558 155.767 20.0988C155.764 19.881 155.821 19.6666 155.932 19.4792C156.105 19.211 156.352 18.998 156.642 18.8654C156.932 18.7328 157.255 18.6862 157.571 18.7311C157.887 18.8054 158.174 18.9735 158.393 19.2134C158.613 19.4534 158.755 19.7539 158.801 20.0758C158.837 20.5026 158.801 20.9341 158.801 21.3655C158.808 21.4416 158.785 21.5175 158.738 21.578C158.692 21.6384 158.624 21.6789 158.548 21.6913C158.089 21.8107 157.63 21.9392 157.171 22.0769C156.154 22.3132 155.154 22.6199 154.179 22.9948C153.776 23.1586 153.422 23.4231 153.15 23.7631C152.878 24.103 152.699 24.5069 152.628 24.9362C152.459 25.7463 152.569 26.5896 152.94 27.3293C153.31 28.0691 153.92 28.6619 154.67 29.0117C155.091 29.2607 155.568 29.4008 156.057 29.4192C156.545 29.4376 157.031 29.3339 157.47 29.1173C157.896 28.9056 158.27 28.6033 158.567 28.2315C158.695 28.0617 158.796 28.0571 158.897 28.2315C158.935 28.3087 158.979 28.3824 159.03 28.4518C159.351 28.8327 159.677 29.2596 160.228 29.2458C161.086 29.2229 161.761 28.7272 162.436 28.2636C162.502 28.1536 162.543 28.0304 162.556 27.9028C162.57 27.7752 162.555 27.6461 162.514 27.5247C162.344 27.3687 162.188 27.5247 162.055 27.5752C161.559 27.7129 161.343 27.5752 161.307 27.0566C161.307 26.9051 161.307 26.7537 161.307 26.5976C161.302 25.5604 161.307 24.4956 161.307 23.4079L161.33 23.4492ZM116.448 21.751V17.2716C116.448 17.1201 116.448 16.9411 116.255 16.9182C115.979 16.8594 115.692 16.8752 115.425 16.9641C114.667 17.3083 113.924 17.68 113.176 18.0334C112.864 18.1803 112.905 18.4557 112.946 18.7035C112.987 18.9514 113.212 18.8688 113.373 18.8779C113.919 18.8779 114.089 19.0569 114.094 19.5985C114.094 21.5996 114.094 23.6052 114.094 25.6063C114.093 25.8868 114.018 26.1623 113.876 26.4043C113.735 26.6463 113.531 26.8461 113.286 26.9831C113.005 27.1693 112.675 27.2685 112.338 27.2685C112.001 27.2685 111.671 27.1693 111.39 26.9831C111.124 26.8266 110.906 26.5992 110.761 26.3261C110.616 26.053 110.549 25.745 110.569 25.4364C110.569 22.7837 110.569 20.1355 110.569 17.4873C110.569 17.368 110.569 17.2486 110.569 17.1293C110.569 17.01 110.504 16.8952 110.358 16.8952C110.059 16.849 109.753 16.8773 109.467 16.9778C108.751 17.3221 108.031 17.6709 107.31 18.0059C106.989 18.1528 107.035 18.4144 107.062 18.6668C107.09 18.9192 107.315 18.855 107.475 18.8596C108.035 18.8596 108.196 19.0064 108.219 19.5572C108.288 21.2507 108.219 22.9397 108.251 24.6333C108.251 25.2988 108.223 25.9688 108.283 26.6343C108.31 27.123 108.471 27.595 108.746 27.9994C109.022 28.4038 109.403 28.7252 109.848 28.9291C110.385 29.2038 110.99 29.3195 111.591 29.2626C112.192 29.2057 112.764 28.9786 113.24 28.6079C113.464 28.4394 113.675 28.2553 113.873 28.0571C114.025 27.9194 114.121 27.947 114.158 28.1443C114.194 28.3417 114.213 28.4885 114.231 28.6583C114.25 28.8282 114.369 28.975 114.603 28.9062L117.632 28.0892C117.816 28.0387 117.958 27.9699 117.93 27.7404C117.903 27.5109 117.852 27.3916 117.595 27.3457C116.746 27.1943 116.462 26.8363 116.457 25.9688L116.448 21.751ZM103.404 23.1462C104.322 23.1462 105.24 23.1462 106.186 23.1462C106.498 23.1462 106.613 23.0315 106.594 22.7286C106.562 22.2696 106.548 21.8107 106.539 21.3517C106.515 20.1348 106.076 18.9626 105.295 18.0289C104.627 17.24 103.684 16.7334 102.658 16.6108C101.631 16.4882 100.596 16.7587 99.7602 17.368C98.9066 18.0241 98.2936 18.9437 98.0162 19.984C97.3513 22.1839 97.5145 24.5511 98.4752 26.6389C99.1957 28.2499 100.421 29.2458 102.285 29.2596C104.809 29.2596 106.291 27.6578 106.58 25.2483C106.613 24.9913 106.53 24.8628 106.25 24.8673C105.745 24.8673 105.236 24.8673 104.731 24.8673C104.451 24.8673 104.345 24.9729 104.322 25.2391C104.287 25.6265 104.195 26.0067 104.052 26.3681C103.926 26.7744 103.658 27.122 103.298 27.3477C102.937 27.5734 102.508 27.6623 102.087 27.5981C101.752 27.534 101.441 27.3776 101.19 27.1465C100.938 26.9154 100.756 26.6189 100.664 26.2901C100.352 25.3918 100.196 24.4462 100.205 23.4951C100.205 23.2564 100.293 23.1508 100.55 23.1508C101.504 23.1508 102.454 23.1462 103.404 23.1462ZM69.0926 23.1462H71.9382C72.1539 23.1462 72.2962 23.0912 72.287 22.8433C72.2594 21.7235 72.287 20.6036 71.8739 19.5297C71.2865 18.061 70.341 16.9641 68.73 16.6657C66.5179 16.2527 64.7004 17.3634 63.8743 19.5434C62.9931 21.8382 63.195 24.1605 64.0716 26.4278C64.4374 27.469 65.1857 28.3321 66.1645 28.8419C66.9724 29.2435 67.8887 29.3723 68.7759 29.2091C69.4858 29.1202 70.1575 28.8375 70.7173 28.3921C71.6314 27.5805 72.1928 26.4444 72.2824 25.2253C72.3145 24.9821 72.2135 24.8673 71.9565 24.8719C71.4517 24.8719 70.9422 24.8719 70.4374 24.8719C70.1666 24.8719 70.0473 24.9637 70.0243 25.2345C69.9847 25.785 69.8114 26.3175 69.5195 26.7858C69.339 27.0982 69.0639 27.3453 68.734 27.4913C68.404 27.6373 68.0362 27.6747 67.6836 27.5981C67.378 27.5219 67.0971 27.3682 66.868 27.152C66.639 26.9358 66.4694 26.6643 66.3756 26.3635C66.0515 25.438 65.8961 24.4618 65.9166 23.4813C65.9166 23.2243 66.036 23.1554 66.2746 23.1554C67.2155 23.1508 68.1518 23.1462 69.0926 23.1462V23.1462ZM131.222 26.8592C131.222 27.4834 131.222 28.1076 131.222 28.7318C131.222 28.8511 131.176 29.0163 131.341 29.0622C131.506 29.1081 131.557 28.9704 131.621 28.8786C132.131 28.1259 132.209 28.2315 132.902 28.6721H132.929C133.412 28.9956 133.977 29.1766 134.558 29.1945C135.139 29.2123 135.713 29.0663 136.215 28.7731C136.533 28.5904 136.827 28.37 137.092 28.1168C137.466 27.7777 137.763 27.3628 137.963 26.8997C138.163 26.4367 138.262 25.9362 138.254 25.4317C138.245 24.9272 138.129 24.4304 137.913 23.9746C137.696 23.5187 137.385 23.1142 137 22.7883C136.013 21.9943 135.137 21.0626 134.214 20.186C134.02 19.9986 133.873 19.7672 133.787 19.5113C133.733 19.3783 133.707 19.2358 133.708 19.0922C133.71 18.9486 133.74 18.8069 133.798 18.6752C133.855 18.5435 133.938 18.4246 134.042 18.3255C134.146 18.2263 134.268 18.1489 134.402 18.0977C134.803 17.9489 135.239 17.9296 135.651 18.0424C136.063 18.1552 136.429 18.3945 136.697 18.7265C136.954 19.0608 137.164 19.4282 137.321 19.8188C137.409 20.0575 137.611 20.0483 137.808 20.0207C138.005 19.9932 138.001 19.8234 138.001 19.6719V17.1385C138.001 17.0008 138.028 16.831 137.845 16.7943C137.758 16.7612 137.665 16.7519 137.573 16.7672C137.482 16.7826 137.397 16.822 137.326 16.8815C137.255 16.9631 137.189 17.049 137.129 17.1385C137.106 17.1852 137.073 17.2257 137.031 17.2565C136.99 17.2873 136.941 17.3074 136.89 17.3151C136.839 17.3228 136.787 17.3178 136.738 17.3006C136.689 17.2834 136.645 17.2546 136.61 17.2165C136.048 16.8145 135.386 16.5748 134.696 16.5235C134.033 16.4768 133.369 16.6194 132.784 16.9346C132.198 17.2498 131.714 17.7248 131.387 18.3042C131.106 18.913 131.023 19.5943 131.149 20.2527C131.275 20.9111 131.604 21.5136 132.089 21.9759C132.97 22.825 133.898 23.6327 134.843 24.4405C135.14 24.6975 135.384 25.0091 135.564 25.3584C135.724 25.6973 135.762 26.0812 135.672 26.4451C135.582 26.809 135.368 27.1304 135.068 27.3549C134.867 27.4912 134.639 27.5835 134.4 27.6256C134.16 27.6678 133.915 27.6589 133.679 27.5995C133.443 27.5401 133.223 27.4317 133.032 27.2811C132.841 27.1306 132.684 26.9415 132.571 26.7261C132.271 26.1765 132.069 25.5784 131.975 24.9591C131.929 24.67 131.791 24.5415 131.516 24.5736C131.24 24.6057 131.259 24.8169 131.259 25.005L131.222 26.8592ZM151.572 20.8101V15.6377C151.572 15.0778 151.572 14.5178 151.572 13.9579C151.572 13.7881 151.572 13.6229 151.333 13.6137C151.109 13.5744 150.879 13.5838 150.659 13.6412C149.819 13.9763 149.011 14.3847 148.208 14.8024C147.956 14.9309 148.047 15.2063 148.075 15.4174C148.102 15.6285 148.277 15.5734 148.414 15.578C149.075 15.6056 149.218 15.7478 149.218 16.4225C149.218 20.0942 149.218 23.7551 149.218 27.4054C149.244 27.6296 149.192 27.856 149.072 28.0472C148.952 28.2383 148.77 28.3826 148.557 28.4564C148.277 28.562 148.378 28.8144 148.382 29.0163C148.387 29.2183 148.561 29.1999 148.704 29.1999H152.004C152.15 29.1999 152.334 29.1999 152.357 29.0071C152.38 28.8144 152.453 28.5482 152.187 28.4426C151.976 28.3566 151.8 28.202 151.688 28.0039C151.576 27.8057 151.533 27.5755 151.568 27.3503C151.577 25.1794 151.572 22.9948 151.572 20.8101V20.8101ZM73.7511 22.8158C73.7511 24.1009 73.7511 25.3814 73.7511 26.6619C73.7435 27.2017 73.8146 27.7397 73.9622 28.259C74.0223 28.4751 74.1391 28.6712 74.3005 28.827C74.4619 28.9827 74.662 29.0925 74.8801 29.1448C75.3705 29.2408 75.8786 29.1831 76.335 28.9796C76.7792 28.8363 77.1953 28.6173 77.565 28.3325C77.7532 28.1902 77.8863 27.6395 77.7394 27.4742C77.5925 27.309 77.3952 27.5523 77.2116 27.5752C77.1599 27.5919 77.1093 27.6118 77.0601 27.6349C76.5599 27.7955 76.2662 27.5936 76.2386 27.0612C76.2386 26.9877 76.2386 26.9097 76.2386 26.8363V18.9192C76.2386 18.8366 76.2386 18.7494 76.2386 18.6622C76.2386 18.4419 76.3442 18.3547 76.5553 18.3593C76.7664 18.3639 76.9867 18.3593 77.2024 18.3593C78.0286 18.3593 78.024 18.3593 77.9827 17.5424C77.9827 17.3083 77.8771 17.2073 77.6476 17.2073C77.3126 17.2073 76.9821 17.2073 76.6471 17.2073C76.312 17.2073 76.2248 17.0972 76.2294 16.7897C76.2294 16.0462 76.2294 15.3026 76.2294 14.5637C76.2294 14.3755 76.2294 14.1966 75.9678 14.2057C75.7062 14.2149 75.5089 14.1139 75.4033 14.4627C75.0132 15.9176 74.2008 16.9549 72.6174 17.2165C72.5579 17.2195 72.5012 17.2424 72.4563 17.2816C72.4113 17.3207 72.3808 17.3737 72.3696 17.4322C72.2135 18.1069 72.3696 18.3088 73.0443 18.3088H73.2737C73.7327 18.3088 73.7327 18.3088 73.7327 18.7678C73.7556 20.1033 73.7511 21.4619 73.7511 22.8158ZM96.4328 22.3568V19.2038C96.4328 18.5429 96.4328 17.8866 96.4328 17.2303C96.4328 17.0696 96.4328 16.9182 96.2079 16.909C95.9616 16.8672 95.7091 16.8813 95.469 16.9503C94.6673 17.3175 93.8703 17.6969 93.0778 18.0885C92.8208 18.217 92.908 18.4878 92.9309 18.7035C92.9539 18.9192 93.1467 18.8733 93.2935 18.8779C93.9636 18.8779 94.1105 19.0248 94.1105 19.7041C94.1105 22.2559 94.1105 24.8092 94.1105 27.3641C94.1421 27.5808 94.0952 27.8017 93.9782 27.9869C93.8612 28.172 93.6818 28.3093 93.4725 28.3738C93.2063 28.461 93.2889 28.7088 93.2981 28.9016C93.3073 29.0944 93.4679 29.0989 93.6102 29.0989H96.9422C97.0891 29.0989 97.2497 29.0989 97.2589 28.9062C97.2681 28.7134 97.3599 28.4472 97.0891 28.3738C96.8675 28.2978 96.6798 28.1462 96.559 27.9456C96.4381 27.745 96.3918 27.5082 96.4282 27.2769C96.4343 25.643 96.4359 24.006 96.4328 22.366V22.3568ZM96.5843 14.5867C96.585 14.2361 96.4519 13.8985 96.2123 13.6426C95.9726 13.3868 95.6444 13.232 95.2946 13.2098C94.9506 13.2444 94.6312 13.4034 94.3962 13.6569C94.1613 13.9105 94.027 14.2411 94.0187 14.5867C94.0263 14.9339 94.1648 15.2654 94.4066 15.5148C94.6483 15.7642 94.9753 15.913 95.3221 15.9314C95.6642 15.9148 95.9867 15.7665 96.2219 15.5176C96.4572 15.2687 96.587 14.9384 96.5843 14.5958V14.5867Z" fill="#71789C"/>
<path d="M165.291 23.0636C165.267 22.24 165.286 21.4158 165.35 20.5944C165.393 20.1398 165.591 19.7138 165.91 19.3873C166.079 19.2204 166.283 19.0933 166.508 19.0152C166.732 18.9372 166.971 18.9101 167.207 18.9361C167.443 18.962 167.67 19.0403 167.872 19.1652C168.074 19.2901 168.246 19.4585 168.375 19.6581C168.666 20.1292 168.818 20.6737 168.811 21.2277C168.811 22.5587 168.811 23.8943 168.811 25.2299C168.844 25.8493 168.66 26.4609 168.292 26.9601C168.135 27.1519 167.934 27.3039 167.707 27.4038C167.479 27.5038 167.232 27.5489 166.984 27.5355C166.736 27.5221 166.495 27.4506 166.279 27.3267C166.064 27.2028 165.881 27.0301 165.745 26.8224C165.445 26.3966 165.285 25.8883 165.286 25.3675C165.286 24.6562 165.291 23.9448 165.291 23.0636Z" fill="#71789C"/>
<path d="M145.321 23.2611V25.2943C145.325 25.7489 145.215 26.1972 145 26.5977C144.857 26.902 144.623 27.1544 144.331 27.3199C144.038 27.4854 143.702 27.5559 143.367 27.5217C143.033 27.4874 142.718 27.35 142.465 27.1285C142.212 26.9071 142.035 26.6125 141.957 26.2856C141.846 25.9355 141.792 25.5698 141.796 25.2025V21.2325C141.791 20.789 141.885 20.35 142.072 19.9474C142.199 19.6114 142.437 19.3289 142.746 19.1469C143.056 18.9649 143.419 18.8943 143.774 18.9469C144.114 18.9892 144.433 19.136 144.686 19.367C144.939 19.598 145.115 19.9018 145.188 20.2365C145.279 20.5809 145.322 20.9361 145.316 21.2921C145.326 21.9485 145.321 22.6048 145.321 23.2611Z" fill="#71789C"/>
<path d="M158.801 24.5C158.856 25.1161 158.805 25.7372 158.649 26.3358C158.573 26.59 158.438 26.8224 158.254 27.0139C158.071 27.2054 157.844 27.3504 157.594 27.4369C157.343 27.5235 157.075 27.5491 156.813 27.5117C156.55 27.4742 156.3 27.3748 156.084 27.2216C155.873 27.0885 155.712 26.8903 155.625 26.6571C155.134 25.3078 155.505 24.1328 156.942 23.4444C157.418 23.2406 157.923 23.1106 158.438 23.0589C158.681 23.0222 158.805 23.1185 158.805 23.3664L158.801 24.5Z" fill="#71789C"/>
<path d="M102.202 21.4341C101.66 21.4341 101.123 21.4341 100.586 21.4341C100.338 21.4341 100.237 21.3377 100.247 21.0898C100.243 20.3987 100.424 19.7191 100.77 19.1209C100.911 18.8644 101.118 18.6505 101.37 18.5015C101.622 18.3525 101.909 18.2739 102.202 18.2739C102.494 18.2739 102.782 18.3525 103.034 18.5015C103.286 18.6505 103.493 18.8644 103.634 19.1209C103.979 19.7294 104.168 20.4136 104.185 21.1128C104.185 21.3469 104.097 21.4432 103.863 21.4387C103.299 21.4295 102.748 21.4341 102.202 21.4341Z" fill="#71789C"/>
<path d="M67.9269 21.4342C67.3899 21.4342 66.8483 21.4342 66.3113 21.4342C66.0635 21.4342 65.9579 21.347 65.9671 21.0946C65.9658 20.4037 66.1462 19.7247 66.4903 19.1257C66.6309 18.868 66.8383 18.653 67.0906 18.5032C67.343 18.3535 67.6311 18.2744 67.9246 18.2744C68.218 18.2744 68.5061 18.3535 68.7585 18.5032C69.0109 18.653 69.2182 18.868 69.3588 19.1257C69.6849 19.7379 69.8596 20.4193 69.8683 21.1129C69.8683 21.3424 69.7856 21.448 69.547 21.4434C69.0008 21.4296 68.4501 21.4342 67.9269 21.4342Z" fill="#71789C"/>
</svg>
