<?xml version="1.0" standalone="no"?>
<!DOCTYPE svg PUBLIC "-//W3C//DTD SVG 20010904//EN"
 "http://www.w3.org/TR/2001/REC-SVG-20010904/DTD/svg10.dtd">
<svg version="1.0" xmlns="http://www.w3.org/2000/svg"
 width="1444.000000pt" height="1444.000000pt" viewBox="0 0 1444.000000 1444.000000"
 preserveAspectRatio="xMidYMid meet">
<metadata>
Created by potrace 1.14, written by Peter Selinger 2001-2017
</metadata>
<g transform="translate(0.000000,1444.000000) scale(0.100000,-0.100000)"
fill="#000000" stroke="none">
<path d="M5318 11228 c-7 -7 -51 -47 -98 -88 -46 -41 -94 -84 -106 -95 -19
-18 -49 -45 -218 -196 -27 -24 -61 -55 -76 -69 -15 -14 -60 -54 -100 -90 -40
-36 -85 -76 -100 -90 -15 -14 -60 -54 -100 -90 -40 -36 -88 -80 -107 -97 -18
-18 -35 -33 -37 -33 -3 0 -22 -17 -43 -37 -22 -21 -70 -65 -108 -98 -37 -33
-85 -76 -105 -95 -21 -19 -73 -66 -116 -105 -43 -38 -92 -83 -109 -99 -16 -15
-54 -49 -83 -74 -29 -25 -65 -57 -80 -71 -32 -30 -191 -173 -272 -246 -31 -27
-91 -81 -134 -120 -43 -38 -88 -79 -100 -90 -49 -43 -137 -124 -221 -200 -48
-44 -101 -89 -116 -100 -16 -11 -29 -24 -29 -30 0 -5 -16 -21 -35 -34 -19 -13
-35 -27 -35 -32 0 -5 -4 -9 -9 -9 -5 0 -27 -17 -48 -37 -21 -21 -71 -67 -112
-103 -40 -36 -93 -83 -117 -105 -23 -22 -71 -65 -104 -95 -34 -30 -78 -70 -98
-88 -20 -19 -61 -55 -90 -80 -30 -26 -72 -64 -95 -86 -23 -21 -68 -62 -100
-90 -33 -28 -78 -69 -102 -91 -23 -22 -71 -65 -106 -96 -35 -31 -83 -74 -106
-95 -23 -22 -56 -52 -75 -68 -18 -16 -73 -65 -123 -111 -49 -45 -110 -99 -135
-121 -24 -21 -51 -46 -60 -54 -9 -8 -53 -49 -99 -90 -46 -41 -98 -88 -116
-105 -29 -26 -129 -116 -189 -168 -11 -10 -44 -39 -72 -65 -28 -26 -86 -78
-128 -117 -43 -38 -91 -81 -106 -95 -15 -14 -60 -54 -100 -90 -40 -36 -85 -76
-100 -90 -15 -14 -47 -43 -71 -64 -218 -193 -326 -296 -314 -297 47 -4 78 -3
81 3 3 4 15 3 27 -1 12 -5 34 -5 49 0 16 4 28 4 28 -1 0 -5 13 -5 30 0 17 5
32 5 35 0 3 -5 13 -6 23 -3 9 4 32 6 52 5 19 -1 41 -2 48 -2 6 0 19 0 27 0 8
0 22 0 30 0 8 0 22 0 30 0 8 0 22 0 30 0 8 0 22 0 30 0 8 0 22 0 30 0 8 0 22
0 30 0 8 0 22 0 30 0 8 0 22 0 30 0 8 0 22 0 30 0 8 0 22 0 30 0 8 0 22 0 30
0 8 0 22 0 30 0 8 0 22 0 30 0 8 0 22 0 30 0 8 0 22 0 30 0 8 0 21 0 28 0 6 1
33 -1 60 -2 26 -2 47 0 47 4 0 4 10 4 23 -1 13 -5 30 -5 38 -1 8 5 21 5 28 0
8 -4 27 -4 42 0 16 5 29 5 29 0 0 -5 13 -5 30 0 18 5 32 5 36 -1 3 -5 10 -7
15 -3 15 9 78 11 92 2 6 -3 19 -2 28 3 11 6 20 5 24 -1 3 -5 15 -6 28 -1 12 5
34 5 49 0 16 -4 28 -4 28 1 0 5 13 5 30 0 17 -5 30 -5 30 0 0 5 13 5 30 0 17
-5 30 -5 30 0 0 5 13 5 30 0 18 -5 30 -5 30 0 0 6 10 6 24 0 13 -5 27 -6 30
-3 8 8 76 9 76 1 0 -4 14 -3 30 2 17 5 30 6 30 2 0 -6 222 -7 240 -2 3 1 15 3
28 4 18 2 54 26 82 56 3 3 77 68 165 144 88 76 167 147 177 157 9 11 19 19 22
19 5 0 46 35 118 102 16 15 48 42 70 60 22 18 57 48 78 68 21 19 60 53 86 75
25 22 53 46 61 54 9 8 36 32 61 53 l47 38 1246 0 1247 0 1 -287 c0 -159 1
-345 1 -414 l0 -127 25 -4 c14 -3 25 -2 25 1 0 7 58 7 65 0 2 -3 29 -2 60 1
30 3 55 3 55 -1 0 -4 14 -4 30 1 17 5 30 6 30 2 0 -8 68 -7 76 1 3 3 17 2 30
-3 14 -6 24 -6 24 0 0 5 12 5 30 0 17 -5 30 -5 30 0 0 5 13 5 30 0 17 -5 30
-5 30 0 0 5 13 5 30 0 17 -5 30 -5 30 0 0 5 12 5 28 1 15 -5 37 -5 49 0 13 5
25 4 28 -1 4 -6 13 -7 24 -1 9 5 23 6 29 2 7 -4 35 -4 62 -1 28 4 50 3 50 -1
0 -4 14 -4 30 1 17 5 30 6 30 2 0 -8 68 -7 76 1 3 3 17 2 30 -3 14 -6 24 -6
24 0 0 5 12 5 30 0 17 -5 30 -5 30 0 0 5 13 5 30 0 17 -5 30 -5 30 0 0 5 13 5
30 0 17 -5 30 -5 30 0 0 5 12 5 28 1 15 -5 37 -5 49 0 13 5 25 4 28 -1 4 -6
13 -7 24 -1 9 5 23 6 29 2 7 -4 35 -4 62 -1 28 4 50 3 50 -1 0 -4 14 -4 30 1
17 5 30 5 30 0 0 -5 13 -5 30 0 17 5 30 5 30 0 0 -5 13 -5 30 0 18 5 30 5 30
0 0 -6 10 -6 25 0 15 6 27 6 30 0 3 -6 15 -6 30 0 15 6 27 6 30 0 3 -6 15 -6
30 0 14 5 27 5 30 1 3 -5 14 -7 25 -4 20 5 20 14 20 2404 l0 2399 -1084 0
c-854 0 -1087 -3 -1098 -12z m279 -2141 l0 -733 -794 0 c-436 0 -793 1 -793 3
0 2 12 15 28 29 15 14 76 71 136 127 61 56 137 127 169 157 33 30 82 76 110
103 27 26 50 47 52 47 2 0 25 21 53 48 42 40 178 167 286 266 17 15 80 74 140
130 148 138 127 118 400 371 60 55 128 119 153 143 24 23 47 42 52 42 4 0 8
-330 8 -733z"/>
<path d="M8629 11233 c0 -4 -2 -17 -4 -28 -3 -11 -6 -36 -9 -55 -2 -19 -7 -46
-10 -60 -3 -14 -8 -43 -10 -65 -3 -22 -8 -51 -11 -65 -5 -23 -10 -58 -20 -145
-2 -16 -4 -30 -5 -30 -1 0 -3 -11 -6 -25 -2 -14 -6 -38 -9 -55 -3 -16 -7 -46
-10 -65 -2 -19 -6 -51 -10 -70 -7 -36 -8 -41 -19 -120 -4 -25 -9 -58 -12 -73
-3 -16 -7 -38 -9 -50 -1 -12 -5 -41 -9 -64 -4 -23 -9 -55 -11 -70 -2 -15 -9
-57 -15 -93 -6 -36 -13 -78 -15 -95 -4 -29 -8 -51 -21 -131 -3 -20 -8 -46 -10
-58 -2 -11 -7 -39 -10 -61 -5 -41 -8 -59 -24 -155 -5 -30 -12 -75 -16 -100 -3
-25 -8 -54 -10 -65 -1 -11 -6 -40 -9 -65 -4 -25 -8 -54 -10 -65 -2 -11 -6 -31
-9 -45 -2 -14 -7 -45 -11 -70 -8 -62 -13 -90 -19 -125 -3 -16 -8 -52 -12 -80
-3 -27 -8 -53 -10 -56 -4 -7 -15 -83 -19 -129 -1 -14 -5 -38 -9 -55 -6 -28 -9
-47 -22 -135 -2 -19 -7 -46 -10 -60 -3 -14 -7 -43 -10 -65 -2 -22 -9 -62 -14
-90 -6 -27 -12 -68 -15 -90 -3 -22 -8 -58 -12 -80 -3 -22 -7 -51 -8 -65 -2
-14 -4 -25 -5 -25 -2 0 -4 -9 -5 -20 -1 -11 -5 -38 -9 -60 -4 -22 -11 -69 -17
-105 -18 -116 -19 -125 -24 -150 -3 -14 -8 -43 -11 -65 -3 -22 -7 -53 -10 -70
-3 -16 -6 -41 -8 -55 -6 -39 -16 -102 -22 -140 -10 -56 -13 -72 -19 -120 -3
-25 -8 -52 -10 -60 -2 -8 -7 -37 -10 -65 -4 -27 -8 -57 -10 -65 -2 -8 -7 -37
-11 -65 -3 -27 -8 -59 -11 -70 -2 -11 -6 -36 -9 -55 -7 -56 -13 -92 -23 -147
-6 -29 -13 -74 -17 -100 -3 -26 -12 -86 -20 -132 -7 -47 -11 -88 -8 -93 3 -4
1 -8 -3 -8 -7 0 -10 -50 -4 -56 0 -1 17 2 36 6 19 4 35 5 35 1 0 -5 20 -5 45
-1 24 4 50 3 57 -1 6 -4 19 -4 28 1 9 5 22 5 30 0 8 -5 21 -5 30 0 9 5 22 5
30 0 8 -5 21 -5 30 0 9 5 22 5 30 0 8 -5 21 -5 30 0 9 5 22 5 30 0 8 -5 21 -5
30 0 9 5 22 5 30 0 8 -5 21 -5 30 0 9 5 22 5 30 0 8 -5 21 -5 30 0 9 5 22 5
30 0 8 -5 21 -5 30 0 9 5 22 5 30 0 8 -5 21 -5 31 0 9 5 19 7 22 4 8 -9 97
-10 97 -2 0 4 10 4 23 -1 13 -5 30 -5 38 -1 8 5 21 5 28 0 8 -4 27 -4 42 0 16
5 29 5 29 0 0 -5 13 -5 30 0 18 5 32 5 36 -1 3 -5 10 -7 15 -3 15 9 78 11 92
2 6 -3 19 -2 28 3 11 6 20 5 24 -1 3 -5 15 -6 28 -1 12 5 34 5 49 0 16 -4 28
-4 28 1 0 5 13 5 30 0 17 -5 30 -5 30 0 0 5 13 5 30 0 17 -5 30 -5 30 0 0 5
13 5 30 0 18 -5 30 -5 30 0 0 6 10 6 24 0 13 -5 27 -6 30 -3 8 8 76 9 76 1 0
-4 14 -3 30 2 17 5 30 6 30 2 0 -4 23 -7 50 -7 28 0 50 3 50 7 0 4 10 4 23 -1
13 -5 30 -5 38 -1 8 5 21 5 28 0 8 -4 27 -4 42 0 16 5 29 5 29 0 0 -5 13 -5
30 0 17 5 32 5 35 0 3 -5 13 -6 23 -3 9 4 32 6 52 5 19 -1 41 -2 48 -2 6 0 19
0 27 0 8 0 22 0 30 0 8 0 22 0 30 0 8 0 22 0 30 0 8 0 22 0 30 0 8 0 22 0 30
0 8 0 22 0 30 0 8 0 22 0 30 0 8 0 22 0 30 0 8 0 22 0 30 0 8 0 22 0 30 0 8 0
22 0 30 0 8 0 22 0 30 0 8 0 22 0 30 0 8 0 22 0 30 0 8 0 22 0 30 0 8 0 21 0
28 0 6 1 33 -1 60 -2 26 -2 47 0 47 4 0 4 10 4 23 -1 13 -5 30 -5 38 -1 8 5
21 5 28 0 8 -4 27 -4 42 0 16 5 29 5 29 0 0 -5 13 -5 30 0 18 5 32 5 36 -1 3
-5 10 -7 15 -3 15 9 78 11 92 2 6 -3 19 -2 28 3 11 6 20 5 24 -1 3 -5 15 -6
28 -1 12 5 34 5 49 0 16 -4 28 -4 28 1 0 5 13 5 30 0 17 -5 30 -5 30 0 0 5 13
5 30 0 17 -5 30 -5 30 0 0 5 13 5 30 0 18 -5 30 -5 30 0 0 6 10 6 24 0 13 -5
27 -6 30 -3 8 8 76 9 76 1 0 -4 14 -3 30 2 17 5 30 6 30 2 0 -4 23 -7 50 -7
28 0 50 3 50 7 0 4 10 4 23 -1 13 -5 30 -5 38 -1 8 5 21 5 28 0 8 -4 27 -4 42
0 16 5 29 5 29 0 0 -5 13 -5 30 0 18 5 32 5 36 -1 3 -5 10 -7 15 -3 15 9 78
11 92 2 6 -3 18 -3 27 2 9 5 22 5 30 0 8 -5 21 -5 30 0 9 5 22 5 30 0 8 -5 21
-5 30 0 9 5 22 5 30 0 8 -5 21 -5 30 0 9 5 22 5 30 0 7 -4 24 -4 36 0 14 6 26
5 29 0 3 -5 15 -6 29 0 12 4 29 4 36 0 8 -5 18 -6 23 -3 4 3 59 6 120 8 105 3
241 12 297 20 14 2 52 7 85 11 33 3 69 8 80 10 11 2 45 8 75 14 54 9 80 14
130 25 14 4 36 8 50 11 14 2 32 7 40 11 8 3 20 7 25 7 32 5 257 76 270 86 6 4
21 11 35 15 41 13 202 91 243 119 21 14 42 26 47 26 17 0 206 154 271 222 37
37 64 68 62 68 -2 0 12 20 31 44 20 23 36 48 36 55 0 6 4 11 8 11 12 0 97 183
112 240 35 132 48 230 44 339 -2 62 -11 146 -19 171 -1 3 -5 23 -10 45 -21
109 -99 268 -186 381 -40 52 -127 137 -187 184 -18 14 -38 30 -45 35 -38 33
-259 156 -287 160 -3 1 -23 9 -45 19 -37 16 -187 67 -210 72 -5 1 -30 7 -55
14 -25 7 -56 14 -70 16 -14 3 -61 11 -105 19 -84 15 -185 28 -222 29 -28 0
-20 10 10 12 12 0 45 4 72 8 28 4 66 10 85 12 29 4 89 16 155 30 151 32 336
98 490 175 144 72 209 112 309 193 230 187 367 407 403 651 9 59 8 241 -1 305
-4 30 -10 68 -12 83 -2 15 -9 38 -16 50 -6 12 -10 22 -8 22 5 0 -12 49 -37
105 -47 103 -149 227 -243 294 -19 14 -40 29 -46 33 -68 51 -332 166 -433 188
-9 2 -74 17 -146 34 -71 16 -150 32 -175 35 -25 3 -56 8 -70 11 -14 3 -50 8
-80 11 -53 5 -95 11 -95 14 0 0 -27 3 -60 5 -33 2 -78 6 -100 9 -22 3 -89 8
-150 12 -60 4 -135 9 -165 11 -103 9 -3960 14 -3961 6z m2017 -1076 c3 -3 16
-3 28 1 22 8 1306 6 1386 -1 52 -5 161 -27 175 -35 5 -3 19 -7 30 -8 31 -3
130 -59 171 -96 19 -18 49 -62 66 -98 28 -58 31 -74 30 -150 -1 -74 -5 -118
-12 -127 -2 -2 -3 -6 -4 -10 -3 -22 -62 -109 -90 -134 -33 -29 -139 -88 -172
-94 -10 -2 -20 -4 -21 -5 -4 -3 -12 -5 -63 -14 -25 -5 -54 -10 -65 -13 -11 -2
-74 -6 -140 -8 -66 -2 -124 -4 -130 -5 -5 -1 -12 -1 -15 0 -16 6 -62 5 -66 -2
-3 -5 -10 -6 -15 -2 -16 9 -110 11 -116 2 -2 -5 -9 -6 -14 -3 -13 8 -144 9
-157 1 -6 -3 -13 -3 -16 2 -5 8 -79 7 -103 -2 -7 -3 -13 -2 -13 2 0 8 -83 7
-106 -2 -8 -3 -23 -2 -33 3 -10 6 -33 6 -54 1 -21 -4 -39 -4 -42 0 -3 4 -19 5
-37 1 -18 -4 -54 -4 -80 -1 -31 4 -48 3 -49 -4 0 -7 -3 -6 -5 1 -4 8 -13 9
-28 3 -12 -4 -28 -5 -35 0 -7 4 -28 4 -47 0 -18 -4 -35 -6 -38 -3 -5 6 -84 5
-112 -1 -11 -2 -26 -1 -33 4 -7 4 -28 4 -47 0 -20 -5 -34 -4 -34 2 0 5 -6 5
-16 0 -9 -5 -34 -6 -55 -2 -21 4 -39 4 -39 0 0 -7 -70 -4 -77 4 -3 3 -16 1
-29 -4 -16 -6 -24 -6 -24 1 0 6 -6 6 -18 0 -10 -5 -24 -6 -31 -1 -8 4 -26 4
-42 0 -21 -6 -29 -4 -33 7 -3 8 -4 19 0 24 6 11 11 36 18 93 3 22 7 50 9 61 8
41 17 91 22 130 3 22 10 60 15 85 5 25 11 64 14 87 3 22 8 52 10 65 9 38 16
80 22 123 5 44 7 55 17 100 l7 30 165 -1 c91 0 168 -3 171 -7z m1394 -1780
c14 -4 41 -9 60 -11 95 -13 214 -64 275 -118 86 -75 120 -159 120 -293 -1
-128 -11 -162 -71 -240 -20 -28 -46 -57 -57 -65 -53 -39 -142 -83 -197 -95 -8
-2 -36 -8 -61 -14 -104 -24 -149 -25 -1664 -33 l-660 -3 2 25 c1 14 9 63 17
110 9 47 19 101 22 120 3 19 8 44 11 55 9 27 12 44 15 83 1 18 6 36 10 38 5 3
6 9 4 13 -3 4 -1 25 4 47 6 21 14 66 20 99 5 33 12 71 15 85 12 56 16 77 21
110 4 19 8 42 9 50 2 8 4 23 4 33 1 16 56 17 1039 13 570 -2 1048 -6 1062 -9z"/>
<path d="M5370 3980 c-116 -33 -142 -44 -178 -70 -66 -48 -95 -125 -72 -195
28 -86 149 -138 370 -161 116 -11 147 -15 182 -23 158 -36 127 -176 -44 -197
-77 -10 -146 -10 -203 -1 -67 10 -167 46 -182 65 -7 9 -13 12 -13 8 0 -4 -15
5 -34 19 l-35 26 -28 -32 c-15 -18 -33 -37 -39 -43 -8 -8 -2 -18 25 -37 50
-37 120 -75 156 -84 17 -5 35 -10 40 -11 63 -22 234 -32 320 -19 126 18 235
92 260 178 8 26 11 47 7 47 -4 0 -8 19 -9 41 -2 58 -60 111 -151 139 -64 20
-86 24 -192 36 -101 11 -146 16 -170 18 -42 4 -104 27 -126 47 -28 26 -21 73
16 99 40 29 73 39 142 45 33 3 64 8 69 11 5 3 9 2 9 -3 0 -4 19 -8 43 -7 68 1
192 -38 217 -67 12 -15 50 -29 50 -19 0 6 14 24 30 40 17 16 30 34 30 39 0 23
-149 92 -230 107 -51 9 -231 12 -260 4z"/>
<path d="M7554 3970 c-83 -22 -143 -54 -200 -110 -40 -38 -49 -70 -21 -70 6 0
21 -10 34 -22 l23 -21 49 46 c28 26 57 47 66 47 8 0 15 4 15 9 0 5 12 12 28
16 15 4 36 9 47 12 65 16 189 3 242 -25 77 -41 75 -127 -4 -168 -21 -10 -40
-21 -43 -24 -3 -3 -36 -16 -75 -29 -65 -21 -98 -34 -165 -64 -83 -37 -230
-159 -230 -190 0 -7 -7 -25 -15 -40 -8 -15 -14 -44 -13 -63 1 -32 3 -34 37
-34 20 -1 176 0 346 0 171 1 322 1 336 0 24 0 27 4 31 40 2 23 1 46 -3 52 -5
8 -93 11 -293 11 -158 0 -289 4 -292 9 -9 15 65 75 134 108 79 38 87 41 172
71 181 63 261 135 262 235 0 22 -5 50 -10 64 -13 32 -79 100 -97 100 -8 0 -15
4 -15 8 0 4 -28 16 -62 26 -85 25 -198 27 -284 6z"/>
<path d="M8488 3979 c-7 -4 -15 -6 -19 -3 -9 5 -63 -13 -119 -39 -59 -29 -145
-116 -160 -164 -7 -21 -15 -42 -18 -48 -8 -13 -12 -50 -13 -115 -5 -208 116
-351 326 -384 49 -8 169 -8 210 -1 54 10 135 38 135 47 0 4 7 8 15 8 23 0 93
68 122 117 81 139 61 362 -42 465 -61 60 -72 69 -87 72 -7 1 -29 10 -48 19
-19 9 -53 20 -75 23 -58 10 -213 12 -227 3z m266 -138 c63 -31 110 -82 123
-134 31 -124 8 -242 -59 -304 -24 -23 -102 -61 -141 -69 -44 -9 -153 -6 -195
5 -93 26 -156 83 -186 170 -15 42 -13 178 3 194 6 6 11 19 11 29 0 20 63 89
100 108 44 24 123 37 203 35 64 -2 89 -8 141 -34z"/>
<path d="M9348 3966 c-74 -22 -148 -65 -193 -114 -33 -35 -32 -45 11 -77 l36
-27 36 34 c43 41 102 82 102 72 0 -3 7 -1 15 6 26 21 150 30 224 16 129 -26
168 -126 73 -188 -33 -21 -119 -59 -147 -64 -19 -4 -116 -44 -168 -70 -135
-68 -227 -175 -232 -269 l-2 -45 36 -1 c175 -3 704 1 709 6 7 7 6 84 -2 92 -3
3 -136 6 -296 7 -159 0 -290 3 -290 6 0 8 37 48 68 72 29 23 133 70 227 103
165 56 251 118 272 196 21 76 -13 154 -88 203 -21 15 -39 24 -39 21 0 -3 -12
1 -28 9 -70 36 -220 41 -324 12z"/>
<path d="M10265 3984 c-47 -12 -134 -40 -151 -49 -25 -13 -92 -64 -108 -83 -6
-7 -16 -19 -23 -26 -10 -11 -4 -20 28 -46 l40 -32 45 42 c71 65 140 92 239 92
83 0 118 -7 165 -33 81 -46 75 -124 -15 -169 -28 -14 -53 -29 -57 -35 -4 -5
-8 -7 -8 -4 0 11 -175 -57 -244 -94 -95 -52 -159 -110 -197 -181 -24 -45 -32
-115 -14 -122 22 -9 465 -9 465 -1 0 5 4 6 10 2 8 -5 108 -8 225 -6 l40 1 -1
45 c0 25 -4 48 -7 52 -4 3 -137 6 -297 6 -287 0 -289 0 -278 20 12 23 59 66
72 67 5 0 17 7 26 15 9 8 80 39 159 69 192 74 252 111 286 176 63 121 -31 249
-210 286 -31 7 -173 13 -190 8z"/>
<path d="M4269 3956 c-4 -56 -1 -708 4 -712 3 -4 167 -6 363 -6 l358 0 -1 38
c-1 22 -1 47 -2 56 -1 15 -26 16 -283 16 -156 0 -291 1 -301 1 -16 1 -17 11
-15 103 l3 102 248 -1 248 0 -3 55 -3 55 -245 1 -245 1 -2 95 -1 96 294 -1
c254 0 294 2 295 15 3 46 1 82 -6 88 -12 12 -705 10 -706 -2z"/>
<path d="M5949 3956 c-5 -69 -4 -88 5 -94 6 -3 80 -6 166 -7 l155 0 2 -160 c3
-194 3 -171 0 -307 -1 -66 2 -119 8 -127 8 -12 7 -13 -5 -6 -11 6 -12 5 -4 -4
11 -12 102 -19 119 -9 11 7 12 139 1 157 -4 6 -4 11 1 11 9 0 9 242 0 257 -4
6 -3 13 0 17 4 3 7 43 7 89 l1 82 160 1 c88 1 162 2 165 3 4 1 5 49 1 94 -1
17 -781 20 -782 3z"/>
<path d="M6743 3356 c-35 -30 -39 -77 -9 -104 34 -33 85 -33 116 0 63 68 -36
165 -107 104z"/>
</g>
</svg>
