<svg width="90" height="47" viewBox="0 0 90 47" fill="none" xmlns="http://www.w3.org/2000/svg">
<path d="M0.018936 44.8563C0.018936 30.1535 0.012624 15.4507 0 0.747973C0 0.123084 0.123084 0 0.747972 0C15.476 0.023144 30.204 0.029456 44.932 0.018936C46.3775 0.738505 46.9266 1.94094 46.9266 3.51263C46.914 16.7847 46.914 30.0567 46.9266 43.3288C46.9266 45.7557 45.8346 46.8319 43.3887 46.8319C30.062 46.8445 16.7342 46.8498 3.40533 46.8477C1.84626 46.8477 0.688008 46.2922 0.018936 44.8563ZM8.76737 29.2877C8.76737 27.9212 8.74528 26.5546 8.76737 25.1849C8.78947 24.1087 9.21553 23.7174 10.2823 23.6795C10.5568 23.6795 10.8314 23.6795 11.1028 23.6795C12.7597 23.6795 13.1195 24.0393 13.129 25.7309C13.129 28.0379 13.129 30.345 13.129 32.652C13.129 33.482 13.009 34.23 12.2327 34.7097C12.0777 34.8124 11.9645 34.9672 11.9136 35.146C11.8626 35.3248 11.8773 35.516 11.9549 35.6849C12.0654 36.0479 12.3968 36.0636 12.7061 36.0636C13.9537 36.0636 15.2004 36.0636 16.4459 36.0636C16.7836 36.0636 17.1466 36.0636 17.2791 35.6628C17.345 35.5031 17.361 35.3271 17.325 35.1581C17.2889 34.9891 17.2025 34.835 17.0771 34.716C16.509 34.1921 16.4144 33.5231 16.4144 32.8035C16.4144 26.4915 16.4144 20.1795 16.4144 13.8675C16.4144 13.0785 16.5564 12.3557 17.1592 11.7908C17.2828 11.6992 17.374 11.5705 17.4194 11.4235C17.4648 11.2765 17.4621 11.1188 17.4117 10.9734C17.2791 10.6136 16.9446 10.6326 16.6416 10.6294C15.395 10.6294 14.1484 10.6294 12.9017 10.6294C12.5451 10.6294 12.119 10.5505 11.9549 10.9955C11.8721 11.1956 11.8659 11.4192 11.9375 11.6235C12.0091 11.8279 12.1535 11.9987 12.3431 12.1033C12.5687 12.2339 12.7564 12.421 12.8875 12.6463C13.0187 12.8715 13.0889 13.1271 13.0911 13.3878C13.1058 15.9694 13.1058 18.5499 13.0911 21.1294C13.0911 21.707 12.7755 21.9247 12.2137 21.9153C11.39 21.9153 10.5695 21.8869 9.74889 21.9153C8.99461 21.9468 8.72319 21.5997 8.72635 20.8833C8.74528 18.3301 8.72635 15.78 8.72635 13.23C8.70621 12.9716 8.74616 12.712 8.84308 12.4717C8.93999 12.2313 9.09123 12.0166 9.28496 11.8445C9.40154 11.7692 9.49007 11.6576 9.53685 11.527C9.58363 11.3963 9.58606 11.2539 9.54375 11.1218C9.46801 10.7777 9.13031 10.7683 8.83681 10.7651C7.59124 10.7651 6.34356 10.7651 5.09379 10.7651C4.77819 10.7651 4.46259 10.7935 4.3395 11.147C4.2713 11.3033 4.26218 11.4791 4.31385 11.6416C4.36551 11.8042 4.47444 11.9424 4.62039 12.0307C5.27052 12.4473 5.3652 13.0627 5.3652 13.7696C5.35258 20.1763 5.35258 26.5841 5.3652 32.9929C5.3652 33.6998 5.26421 34.3121 4.61408 34.7318C4.45849 34.834 4.34444 34.9883 4.29238 35.1671C4.24032 35.3458 4.25367 35.5372 4.33004 35.707C4.44996 36.0668 4.78766 36.0636 5.09379 36.0668C6.40458 36.0668 7.71327 36.0668 9.01985 36.0668C9.33545 36.0668 9.65105 36.0668 9.77414 35.7039C9.82344 35.5576 9.8226 35.399 9.77173 35.2533C9.72086 35.1075 9.62287 34.9829 9.49325 34.8991C8.86205 34.4194 8.76106 33.7503 8.76737 33.0244C8.77684 31.7778 8.76737 30.5312 8.76737 29.2877ZM39.51 24.7083C39.2533 24.4569 39.0794 24.1333 39.0113 23.7805C37.5091 19.7829 36.011 15.7726 34.5172 11.7498C34.331 11.248 34.1574 10.7651 33.4915 10.7683C32.7025 10.7683 31.9135 10.7683 31.1213 10.7683C30.8057 10.7683 30.4901 10.8409 30.4081 11.207C30.3569 11.3536 30.3579 11.5134 30.4108 11.6594C30.4637 11.8054 30.5653 11.9287 30.6984 12.0086C31.5853 12.5104 31.6452 13.3246 31.6452 14.2178C31.6326 20.2899 31.6326 26.3621 31.6452 32.4342C31.6452 33.381 31.62 34.2616 30.67 34.8076C30.5426 34.896 30.4483 35.0244 30.402 35.1724C30.3557 35.3204 30.36 35.4797 30.4144 35.625C30.4933 35.9974 30.7994 36.0605 31.1182 36.0605C31.9703 36.0605 32.8224 36.0605 33.6745 36.0605C33.9901 36.0605 34.3057 36.0605 34.4351 35.7039C34.4956 35.5454 34.5028 35.3715 34.4555 35.2086C34.4082 35.0457 34.3091 34.9027 34.1732 34.8012C33.6745 34.391 33.5956 33.8544 33.5956 33.2422C33.5956 28.5965 33.5956 23.9509 33.5956 19.3053C33.5956 19.0654 33.4978 18.7751 33.8197 18.551C33.927 18.7814 34.028 18.9644 34.1006 19.1601C34.9948 21.5797 35.8848 23.9993 36.7706 26.4189C37.8499 29.3645 38.9282 32.3006 40.0055 35.2273C40.1696 35.6723 40.34 36.0826 40.9333 36.0479C41.8107 35.9942 41.615 35.3314 41.615 34.8265C41.6277 27.8433 41.6277 20.8601 41.615 13.8769C41.615 13.1668 41.615 12.4725 42.2462 11.9833C42.367 11.8869 42.453 11.7536 42.4912 11.6038C42.5294 11.454 42.5176 11.2958 42.4577 11.1533C42.3346 10.7998 42.0095 10.7746 41.7034 10.7714C40.9418 10.7714 40.1812 10.7714 39.4216 10.7714C39.106 10.7714 38.7904 10.7935 38.6516 11.1375C38.5785 11.2923 38.5655 11.4687 38.6151 11.6326C38.6646 11.7964 38.7732 11.936 38.9198 12.0244C39.611 12.4631 39.6867 13.1163 39.6836 13.8485C39.6836 17.1592 39.6836 20.4761 39.6836 23.7773C39.6709 24.0645 39.7656 24.377 39.51 24.7083V24.7083ZM23.8152 36.07H28.1042C28.1642 36.07 28.2241 36.07 28.2841 36.07C28.8553 36.0952 29.2309 35.909 29.2309 35.262C29.2309 33.8671 29.2309 32.4721 29.2309 31.074C29.2309 30.7584 29.1867 30.4428 28.8048 30.3639C28.6374 30.3302 28.4635 30.3543 28.3116 30.4323C28.1597 30.5103 28.0387 30.6375 27.9685 30.7931C27.8025 31.1826 27.6643 31.5834 27.5551 31.9924C27.0185 33.6556 26.0528 34.3152 24.3138 34.3405C23.4459 34.3405 23.1461 34.0501 23.1493 33.1822C23.1777 26.6556 23.1682 20.1321 23.1493 13.615C23.1493 13.0027 23.266 12.4694 23.8057 12.1033C23.9719 12.0172 24.1015 11.874 24.1705 11.7001C24.2395 11.5261 24.2433 11.333 24.1813 11.1565C24.0456 10.7525 23.6763 10.7588 23.3449 10.7588C22.0994 10.7588 20.8528 10.7588 19.6051 10.7588C19.2421 10.7588 18.8382 10.743 18.7088 11.2038C18.6601 11.3817 18.671 11.5706 18.74 11.7416C18.809 11.9126 18.9322 12.0563 19.0907 12.1506C19.3187 12.3282 19.4992 12.5594 19.6159 12.8238C19.7327 13.0882 19.7821 13.3774 19.7597 13.6655C19.7597 20.129 19.7597 26.5935 19.7597 33.0591C19.7597 33.6903 19.583 34.189 18.9928 34.4888C18.7803 34.5813 18.6122 34.7531 18.5244 34.9677C18.4365 35.1822 18.4359 35.4226 18.5226 35.6376C18.6678 36.1489 19.1317 36.0605 19.5136 36.0636C20.959 36.0763 22.3887 36.07 23.8152 36.07V36.07Z" fill="#71789C"/>
<path d="M58.0861 0.019043C57.2876 3.80625 57.8841 7.6187 57.7074 11.4154C57.649 11.8999 57.7323 12.3911 57.9472 12.8293C58.225 13.3311 58.0451 13.6656 57.4644 13.6877C56.8332 13.7161 56.1862 13.7129 55.5487 13.6877C55.1447 13.6719 54.8354 13.3721 55.0816 13.0281C55.8138 12.0308 55.4635 10.9199 55.5424 9.87208C55.5802 9.32925 55.5424 8.78326 55.5424 8.23727C55.5424 7.54295 55.2962 7.15792 54.5324 7.15476C53.7687 7.15161 53.532 7.5398 53.5415 8.23727C53.5635 9.42077 53.5415 10.6043 53.5415 11.7878C53.5202 12.153 53.6129 12.5158 53.8066 12.8261C54.2452 13.4573 53.9107 13.6972 53.2763 13.7256C53.0049 13.7256 52.7304 13.7256 52.4558 13.7256C50.9504 13.7256 50.963 13.7256 51.3985 12.3527C51.4674 12.0582 51.4919 11.755 51.4711 11.4532C51.4711 8.38876 51.4175 5.32428 51.509 2.26296C51.5342 1.41084 50.7957 0.849072 50.9535 0.028511H53.876C53.8981 0.145283 53.9738 0.290459 53.9328 0.378827C53.1943 1.91264 53.6677 3.53483 53.5446 5.11283C53.5004 5.72194 53.7908 5.96811 54.4094 5.99967C55.2394 6.0407 55.5645 5.71878 55.5455 4.89191C55.5076 3.24763 55.7096 1.57811 54.9711 0.019043H58.0861Z" fill="#71789C"/>
<path d="M76.5646 41.0281C76.3226 42.4294 76.0806 43.8307 75.8387 45.2319C75.7977 45.4718 75.7535 45.7085 75.703 45.9483C75.6335 46.2829 75.5515 46.6237 75.1033 46.6143C74.6552 46.6048 74.5731 46.2671 74.51 45.9326C74.2544 44.5597 74.005 43.1837 73.7526 41.8108C73.437 40.0498 73.1214 38.2824 72.771 36.5277C72.689 36.1395 72.771 35.4199 72.1682 35.4925C71.6696 35.5493 71.8337 36.1963 71.8306 36.594C71.8306 39.1756 71.8495 41.7572 71.8085 44.3388C71.8079 44.7442 71.7074 45.1432 71.5158 45.5004C71.3242 45.8576 71.0474 46.1621 70.71 46.3868C70.3726 46.6115 69.985 46.7496 69.5815 46.7887C69.178 46.8278 68.7711 46.7668 68.3968 46.6111C67.3869 46.2355 66.8409 45.4308 66.8188 44.1841C66.7999 41.6941 66.8188 39.204 66.8188 36.7139C66.8473 36.3502 66.8088 35.9843 66.7052 35.6345C66.3612 34.7067 66.4085 34.6435 67.4216 34.6246C67.6962 34.6246 67.9708 34.6246 68.2422 34.6246C68.8513 34.6435 69.1353 34.8613 68.7377 35.4673C68.5753 35.7617 68.506 36.0984 68.5388 36.433V43.8117C68.526 44.2389 68.6079 44.6635 68.7787 45.0552C68.8548 45.2566 68.9972 45.4261 69.1825 45.5357C69.3678 45.6452 69.585 45.6884 69.7981 45.658C69.9971 45.6294 70.1813 45.5365 70.3226 45.3935C70.4639 45.2505 70.5546 45.0652 70.5808 44.8658C70.6231 44.6273 70.6431 44.3854 70.6407 44.1431C70.6407 41.5931 70.6407 39.043 70.6407 36.493C70.6535 36.2195 70.6227 35.9457 70.5492 35.6819C70.2052 34.6372 70.1989 34.6278 71.3351 34.6183C72.2819 34.6183 73.2287 34.6183 74.1755 34.6183C74.6867 34.6183 75.0307 34.7856 74.7151 35.401C74.4406 35.9312 74.6173 36.4709 74.7151 37.0074C74.9171 38.153 75.1191 39.2987 75.4316 40.4348C75.785 38.7369 76.6371 37.0705 75.5862 35.3473C75.5548 35.2954 75.5314 35.239 75.5168 35.1801C75.4663 34.9844 75.501 34.7761 75.6967 34.7224C76.4065 34.5453 77.1479 34.5366 77.8617 34.6972C77.9063 34.7081 77.9481 34.7286 77.984 34.7574C78.0199 34.7861 78.0491 34.8223 78.0695 34.8635C78.09 34.9047 78.1012 34.9498 78.1023 34.9958C78.1035 35.0417 78.0946 35.0874 78.0763 35.1296C77.464 36.9916 78.5497 38.6895 78.4771 40.4948H78.7296C78.9284 38.9736 79.1335 37.4524 79.3292 35.9312C79.3304 35.8404 79.3176 35.7499 79.2913 35.6629C79.2409 35.3473 78.6601 35.0317 79.1556 34.7382C79.6511 34.4447 80.3423 34.5331 80.9356 34.6972C80.9893 34.7125 81.0378 34.7418 81.0765 34.782C81.1151 34.8223 81.1424 34.872 81.1555 34.9262C81.1687 34.9804 81.1672 35.0371 81.1513 35.0906C81.1354 35.1441 81.1057 35.1924 81.065 35.2306C80.2034 36.373 80.3171 37.7554 80.0709 39.062C79.6511 41.2712 79.3292 43.4804 78.9568 45.7085C78.8937 46.0841 78.9063 46.5732 78.3509 46.5669C77.7954 46.5606 77.8017 46.0714 77.7197 45.699C77.4041 44.121 77.1169 42.5588 76.8202 40.9871L76.5646 41.0281Z" fill="#71789C"/>
<path d="M63.0191 30.1176C62.4415 30.1176 61.8608 30.1176 61.2864 30.1176C60.7815 30.1176 60.5101 29.884 60.7973 29.3633C61.1318 28.7605 60.8698 28.1798 60.7689 27.5928C60.7475 27.4238 60.661 27.2698 60.5277 27.1637C60.3945 27.0576 60.2251 27.0077 60.0556 27.0247C59.6138 27.0247 59.0267 26.8543 58.8374 27.3782C58.6133 28.0094 58.2441 28.6753 58.8121 29.3412C59.2508 29.8556 59.0362 30.0766 58.4366 30.1302C57.2373 30.2407 57.1142 30.0008 57.3446 28.8142C57.9758 25.6045 58.7964 22.4264 58.9573 19.141C58.9983 18.3141 59.6958 18.1942 60.2197 18.0617C60.8509 17.8976 60.7689 18.5635 60.8509 18.9264C61.4632 21.9593 62.0502 24.9954 62.6435 28.0346C62.6686 28.2149 62.7066 28.3931 62.7571 28.568C62.8423 28.8142 62.8676 29.1645 63.2274 29.1424C63.5872 29.1203 63.6124 28.7794 63.6629 28.5112C64.0543 26.5166 64.4614 24.5252 64.7959 22.5148C64.9916 21.3565 65.3545 20.2362 65.2756 19.0179C65.2283 18.2952 66.0678 18.1406 66.6106 18.0112C67.1534 17.8818 67.0619 18.4814 67.125 18.8002C67.6679 21.5869 68.1697 24.361 68.7188 27.1415C68.8672 27.9084 68.8956 28.7195 69.3974 29.3822C69.4345 29.4306 69.4604 29.4867 69.4731 29.5464C69.5086 29.6478 69.5039 29.759 69.4599 29.8571C69.4158 29.9551 69.3358 30.0326 69.2364 30.0734C68.9524 30.2123 67.1408 30.1555 66.9988 29.9787C66.8094 29.7452 66.9388 29.5527 67.0619 29.3223C67.6079 28.2997 67.125 27.0531 66.1751 27.0216C65.7648 27.0216 65.2504 26.9111 65.0736 27.4318C64.8748 28.0189 64.5561 28.6721 64.9758 29.2528C65.525 30.0134 65.1368 30.1271 64.4772 30.1365C63.9911 30.1365 63.5051 30.1365 63.0191 30.1365V30.1176ZM59.9641 22.196H59.6485C59.4686 23.288 59.2761 24.3768 59.1151 25.4688C59.0583 25.857 59.3266 26.0148 59.68 26.0116C60.0335 26.0085 60.4848 26.1126 60.4406 25.6234C60.3239 24.4841 60.1187 23.3543 59.9641 22.196ZM66.2066 22.2244H65.9131C65.7238 23.3448 65.5092 24.462 65.364 25.5856C65.3103 25.9959 65.6796 26.0306 66.011 26.0306C66.3424 26.0306 66.7968 26.0306 66.7432 25.573C66.5917 24.4526 66.3771 23.3543 66.194 22.2244H66.2066Z" fill="#71789C"/>
<path d="M53.1693 38.2603C52.8536 38.557 52.961 38.8442 52.961 39.0966C52.9483 40.9187 52.9483 42.7397 52.961 44.5597C52.959 44.8923 52.9972 45.224 53.0746 45.5475C53.1661 45.9041 53.5701 46.3491 53.0241 46.5574C52.7183 46.6946 52.3844 46.7573 52.0497 46.7403C51.715 46.7232 51.3892 46.6271 51.0989 46.4596C50.8685 46.3144 50.9569 45.9988 51.1368 45.8095C51.5408 45.3929 51.5313 44.8627 51.5313 44.3608V35.1674C51.5761 34.6814 51.4451 34.1954 51.162 33.7977C50.7675 33.2959 51.0421 33.0466 51.6039 32.9771C52.9168 32.813 53.1503 32.9456 53.6237 34.2048C54.1981 35.7386 54.763 37.2788 55.3437 38.8094C55.4574 39.125 55.4889 39.4406 55.855 39.7562C55.855 37.9573 55.855 36.2436 55.855 34.5299C55.8459 34.4086 55.8148 34.2899 55.7635 34.1796C55.6278 33.8261 55.025 33.4474 55.5836 33.1097C56.1422 32.772 56.7766 32.8919 57.3604 33.0624C57.676 33.1602 57.6476 33.5105 57.474 33.7504C57.1584 34.1859 57.2058 34.6719 57.2058 35.1548C57.2058 38.3697 57.2058 41.5857 57.2058 44.8027C57.2058 45.0773 57.2058 45.3518 57.2058 45.6232C57.1774 45.9925 57.3225 46.4943 56.7766 46.5921C56.2306 46.69 56.1106 46.1661 55.9686 45.7842C55.3185 44.0516 54.6873 42.3126 54.0466 40.5736C53.7563 39.8162 53.4691 39.0619 53.1693 38.2603Z" fill="#71789C"/>
<path d="M53.9297 30.1208C53.1691 30.1208 52.4053 30.1524 51.6479 30.1208C50.9472 30.0861 50.7673 29.7453 51.1776 29.174C51.4355 28.7975 51.5589 28.3449 51.5279 27.8895C51.5279 24.7903 51.5279 21.6922 51.5279 18.5951C51.5638 18.1391 51.4532 17.6836 51.2123 17.2948C50.8967 16.8341 51.004 16.4585 51.6163 16.4206C52.2849 16.3859 52.9549 16.3859 53.6235 16.4206C54.1632 16.449 54.3526 16.7962 54.0496 17.2254C53.6866 17.7462 53.6898 18.3048 53.6898 18.8823C53.6898 21.8269 53.6898 24.7746 53.6898 27.7191C53.6898 28.1767 53.5288 28.7827 54.1979 28.9279C54.867 29.073 55.3025 28.688 55.596 28.1389C55.7538 27.8454 55.8327 27.5077 55.9842 27.2173C56.0342 27.1036 56.1216 27.0104 56.2317 26.953C56.3419 26.8956 56.4683 26.8775 56.5902 26.9017C56.8521 26.9491 56.9058 27.1826 56.9215 27.3909C56.9405 28.0884 56.9468 28.7858 56.9215 29.4833C56.9215 29.9252 56.6407 30.1145 56.202 30.1145C55.4508 30.1177 54.6903 30.124 53.9297 30.1208Z" fill="#71789C"/>
<path d="M87.3834 30.1208C86.7522 30.1208 86.1052 30.1208 85.4677 30.1208C84.8996 30.1051 84.6471 29.8463 85.0006 29.3129C85.2009 28.9717 85.2922 28.5776 85.2626 28.1831C85.2626 25.4184 85.2626 22.6548 85.2626 19.8922C85.2884 19.6206 85.2528 19.3467 85.1584 19.0906C84.7292 18.2606 85.13 18.0586 85.8685 18.0618C86.8721 18.0618 87.8789 18.0839 88.8825 18.0618C89.5326 18.0397 89.8577 18.289 89.8293 18.9518C89.8356 19.0421 89.8356 19.1328 89.8293 19.2232C89.7441 19.7029 90.0881 20.4256 89.479 20.596C88.8162 20.7854 88.892 19.9806 88.6711 19.6019C88.5639 19.3986 88.3948 19.2349 88.1882 19.1344C87.9816 19.0339 87.7483 19.002 87.5223 19.0433C86.9668 19.1032 86.9794 19.5325 86.9763 19.9333C86.9763 20.8127 86.9763 21.6933 86.9763 22.5748C86.9763 22.8463 86.9763 23.1524 87.3203 23.2408C87.6643 23.3291 87.8316 23.1271 87.9925 22.8841C88.1535 22.6411 88.2481 22.2529 88.6237 22.3729C88.9993 22.4928 88.9393 22.9189 88.9393 23.2376C88.9551 23.7236 88.9393 24.2097 88.9393 24.6957C88.9393 24.9387 88.9078 25.2038 88.6048 25.2732C88.3555 25.33 88.2166 25.1565 88.1061 24.9576C87.9199 24.642 87.7306 24.2538 87.2856 24.4053C86.8406 24.5568 86.97 25.0176 86.97 25.3521C86.951 26.2011 86.9542 27.0501 86.97 27.9022C86.97 28.3125 86.869 28.8174 87.4528 28.9373C87.7048 29.0086 87.9726 29.0012 88.2202 28.916C88.4678 28.8308 88.6835 28.672 88.8383 28.4608C89.0101 28.1753 89.1518 27.8728 89.2612 27.5582C89.3401 27.3783 89.4506 27.2426 89.6652 27.2678C89.7572 27.2818 89.8406 27.3298 89.899 27.4022C89.9574 27.4746 89.9866 27.5663 89.9808 27.6592C89.9997 28.2904 90.0124 28.9216 89.9808 29.5528C89.9619 29.9662 89.6652 30.1051 89.277 30.1051C88.6616 30.124 88.0241 30.1208 87.3834 30.1208Z" fill="#71789C"/>
<path d="M63.8428 46.6899C63.2116 46.6899 62.5804 46.7057 61.9271 46.6899C61.4 46.6741 61.1791 46.4185 61.4758 45.923C61.6614 45.5387 61.7368 45.1104 61.6935 44.6858C61.6935 42.0159 61.6935 39.3448 61.6935 36.6727C61.7292 36.2776 61.6797 35.8794 61.5484 35.505C61.2801 34.9117 61.52 34.6403 62.1291 34.634C63.2242 34.634 64.3193 34.634 65.4145 34.634C65.8942 34.634 66.153 34.8517 66.1498 35.3472C66.1624 35.529 66.1624 35.7114 66.1498 35.8932C66.0899 36.3161 66.3771 36.9505 65.8342 37.0957C65.2914 37.2408 65.2882 36.5718 65.1178 36.2183C65.0213 35.9915 64.8463 35.807 64.6249 35.6986C64.4036 35.5902 64.1505 35.5652 63.9122 35.6281C63.3694 35.7196 63.4136 36.1678 63.4073 36.5749C63.4073 37.3934 63.4073 38.2129 63.4073 39.0334C63.4073 39.3206 63.3284 39.693 63.7229 39.7846C64.0385 39.8572 64.2373 39.6552 64.3919 39.409C64.5466 39.1628 64.6728 38.7967 65.0578 38.9356C65.4429 39.0745 65.3577 39.4311 65.3734 39.7278C65.3734 40.2422 65.3734 40.7598 65.3734 41.2742C65.3734 41.5204 65.3229 41.7823 65.02 41.836C64.7643 41.8833 64.6318 41.7003 64.5308 41.5046C64.3698 41.189 64.2152 40.8734 63.7923 40.9744C63.3157 41.1006 63.4199 41.5456 63.4136 41.8896C63.3967 42.7712 63.3967 43.6517 63.4136 44.5312C63.4136 44.9162 63.3315 45.377 63.827 45.538C64.061 45.6136 64.312 45.6192 64.5491 45.5542C64.7863 45.4892 64.9993 45.3563 65.162 45.1719C65.3648 44.945 65.5089 44.672 65.5817 44.3766C65.6638 44.102 65.6859 43.7106 66.1214 43.7864C66.4749 43.8495 66.437 44.1935 66.4528 44.4555C66.6769 46.6457 66.5917 46.7088 63.8428 46.6899Z" fill="#71789C"/>
<path d="M61.2739 13.7065C60.6647 13.7065 60.0588 13.7065 59.4497 13.7065C58.9226 13.7065 58.5818 13.5109 58.9289 12.927C59.1183 12.5439 59.1949 12.1148 59.1499 11.6898C59.1499 9.05143 59.1499 6.41301 59.1499 3.77459C59.2048 3.28974 59.1007 2.80016 58.8532 2.37964C58.5818 1.9946 58.7838 1.70425 59.2067 1.69163C60.4501 1.65691 61.6968 1.66954 62.9402 1.66954C63.0091 1.66484 63.0782 1.67404 63.1434 1.6966C63.2086 1.71915 63.2686 1.7546 63.3199 1.80084C63.3711 1.84707 63.4125 1.90314 63.4416 1.9657C63.4708 2.02827 63.487 2.09606 63.4894 2.16503C63.5324 2.40444 63.5472 2.64805 63.5336 2.89091C63.4831 3.34222 63.7671 4.01445 63.1959 4.17225C62.6246 4.33005 62.6278 3.59785 62.4195 3.22544C62.1607 2.78045 61.8135 2.53112 61.3023 2.64158C60.791 2.75204 60.873 3.16864 60.8699 3.52526C60.8699 4.43735 60.8699 5.34628 60.8699 6.25521C60.8699 6.52347 60.8257 6.84854 61.1476 6.96215C61.4695 7.07577 61.6368 6.82013 61.7788 6.57712C61.9208 6.33411 62.0187 6.02482 62.3658 6.13212C62.713 6.23943 62.6593 6.56449 62.6657 6.83276C62.6657 7.34718 62.6657 7.86161 62.6657 8.37604C62.6657 8.6159 62.6657 8.89047 62.3216 8.9315C62.066 8.96621 61.9556 8.7737 61.8514 8.58118C61.6936 8.29083 61.5516 7.89002 61.1381 8.03835C60.7247 8.18668 60.8825 8.60958 60.8762 8.92519C60.8762 9.83411 60.8762 10.743 60.8762 11.6551C60.8762 12.7219 61.3654 12.9775 62.3153 12.441C62.6999 12.1921 62.9752 11.8062 63.0854 11.3616C63.1769 11.0934 63.1769 10.6925 63.6188 10.7683C63.9786 10.8314 63.9344 11.1723 63.9344 11.4342C63.9722 14.202 64.1521 13.6529 61.2739 13.7065Z" fill="#71789C"/>
<path d="M80.5505 44.91C80.5695 44.4745 80.5758 44.0484 80.6105 43.6255C80.6294 43.4141 80.6925 43.1932 80.9513 43.149C81.0736 43.1241 81.2007 43.146 81.3076 43.2102C81.4145 43.2745 81.4935 43.3765 81.5289 43.4962C81.674 43.8907 81.7593 44.3104 81.8918 44.7112C82.0875 45.2982 82.4062 45.7969 83.1195 45.6896C83.8328 45.5823 84.1168 45.0584 84.1705 44.3893C84.2525 43.3447 83.8044 42.4957 83.129 41.7603C82.7218 41.3122 82.2768 40.8956 81.8666 40.4411C80.7904 39.2103 80.6515 37.7491 80.9829 36.2405C81.2701 34.9339 82.4094 34.0881 83.6213 34.713C83.7034 34.754 83.798 34.7666 83.8801 34.8045C84.2304 34.9813 84.7827 34.3532 84.9752 35.0191C85.1567 35.7283 85.1567 36.4718 84.9752 37.181C84.9555 37.2715 84.9031 37.3516 84.8279 37.4057C84.7528 37.4599 84.6602 37.4844 84.5681 37.4745C84.4766 37.4756 84.3871 37.4474 84.3127 37.394C84.2383 37.3407 84.1829 37.2649 84.1547 37.1778C84.0379 36.8622 83.9527 36.5466 83.8201 36.231C83.6245 35.7892 83.331 35.4168 82.785 35.5336C82.239 35.6503 82.0843 36.0669 82.0338 36.5529C82.0113 36.8574 82.0521 37.1632 82.1537 37.4511C82.2553 37.739 82.4154 38.0027 82.624 38.2256C83.1542 38.8568 83.7318 39.4344 84.2557 40.0656C85.354 41.3942 85.9536 42.8681 85.4486 44.6165C84.9815 46.2166 83.9527 46.8573 82.2926 46.5985C82.2011 46.5985 82.1096 46.5764 82.0244 46.5543C81.592 46.4407 81.0776 46.9393 80.7336 46.4912C80.3896 46.043 80.6263 45.4466 80.5505 44.91Z" fill="#71789C"/>
<path d="M74.3429 28.5808C74.3429 27.9969 74.3429 27.5993 74.3429 27.2048C74.3429 26.9681 74.3429 26.6872 74.6585 26.6304C74.7986 26.6035 74.9437 26.6332 75.062 26.7131C75.1803 26.7929 75.2622 26.9164 75.2897 27.0564C75.4222 27.4288 75.5074 27.8139 75.6274 28.1894C75.823 28.7891 76.167 29.2341 76.8898 29.1362C77.6125 29.0384 77.8618 28.5461 77.9344 27.9306C77.9742 27.4895 77.9196 27.0449 77.7743 26.6264C77.6291 26.208 77.3964 25.8252 77.0917 25.5037C76.6562 24.9956 76.1449 24.5569 75.722 24.0361C75.1783 23.4354 74.8056 22.6998 74.643 21.9059C74.4803 21.1121 74.5336 20.2892 74.7973 19.523C75.1918 18.2385 76.0597 17.8093 77.3221 18.1786C77.4123 18.1982 77.4994 18.2301 77.5809 18.2733C77.9249 18.491 78.4551 17.8788 78.6413 18.4027C78.8844 19.0907 78.7707 19.8418 78.6887 20.5677C78.6809 20.6606 78.6387 20.7474 78.5704 20.8109C78.5022 20.8745 78.4127 20.9104 78.3194 20.9117C78.227 20.9178 78.1351 20.8924 78.0589 20.8397C77.9827 20.787 77.9266 20.71 77.8997 20.6213C77.764 20.2836 77.6598 19.9333 77.5178 19.5988C77.4577 19.4043 77.3277 19.2389 77.1529 19.1346C76.978 19.0302 76.7707 18.9944 76.571 19.0339C76.3732 19.065 76.192 19.1627 76.0572 19.3107C75.9223 19.4587 75.842 19.6483 75.8293 19.8481C75.7682 20.1788 75.7849 20.5192 75.878 20.8424C75.9711 21.1656 76.1381 21.4627 76.3659 21.7102C76.855 22.2909 77.3916 22.8305 77.8902 23.4018C78.9159 24.5695 79.525 25.9013 79.3104 27.4856C79.0327 29.5528 77.906 30.3702 75.8704 30.042C75.8403 30.0387 75.8107 30.0324 75.782 30.0231C75.3496 29.859 74.8541 30.4491 74.4975 29.9883C74.1409 29.5276 74.3871 28.9279 74.3429 28.5808Z" fill="#71789C"/>
<path d="M67.5922 7.81739C67.5922 9.12081 67.5922 10.4274 67.5922 11.734C67.585 12.0661 67.6298 12.3972 67.7247 12.7155C68.0403 13.6244 68.0214 13.6812 67.0935 13.7096C66.8505 13.7096 66.6075 13.7096 66.3645 13.7096C65.6638 13.7096 65.1841 13.596 65.6386 12.7155C65.7452 12.3989 65.7829 12.0632 65.749 11.7308C65.749 9.09031 65.749 6.44978 65.749 3.80926C65.749 3.62621 65.749 3.44317 65.749 3.26327C65.7301 3.01395 65.6986 2.74569 65.3924 2.70466C65.0863 2.66363 64.9948 2.90033 64.8811 3.12757C64.7044 3.47473 64.7991 4.17536 64.2499 4.05859C63.7008 3.94181 63.9343 3.28852 63.9343 2.87193C63.9091 1.67896 63.9564 1.65056 65.1494 1.6474C66.2445 1.6474 67.3586 1.68527 68.4348 1.6474C69.2396 1.60953 69.5678 1.92197 69.4826 2.70466C69.4874 2.79612 69.4874 2.88777 69.4826 2.97923C69.4069 3.36111 69.7035 3.97337 69.167 4.07121C68.6305 4.16905 68.7378 3.52207 68.5768 3.197C68.4537 2.94767 68.3591 2.65417 68.0119 2.71413C67.6647 2.77409 67.6553 3.09285 67.6521 3.36427C67.6521 4.85074 67.6521 6.33722 67.6521 7.82685L67.5922 7.81739Z" fill="#71789C"/>
<path d="M72.3105 24.1845C72.3105 25.4469 72.3105 26.7314 72.3105 28.0033C72.2726 28.4284 72.3432 28.8562 72.5156 29.2467C72.8312 29.8274 72.6197 30.0988 71.9949 30.1241C71.7834 30.1241 71.5688 30.1241 71.3637 30.1241C70.2022 30.1241 70.2527 30.1241 70.4169 28.9753C70.4953 28.2216 70.5185 27.4632 70.4863 26.7061C70.4863 24.4969 70.4863 22.2877 70.4863 20.0785C70.4863 19.7156 70.6315 19.1759 70.076 19.1317C69.6215 19.0844 69.5742 19.5767 69.4669 19.9144C69.3754 20.2016 69.3375 20.5993 68.943 20.5267C68.5485 20.4541 68.6621 20.047 68.6432 19.7598C68.6242 19.4726 68.6432 19.0939 68.6432 18.7625C68.6312 18.6711 68.6404 18.5782 68.6702 18.4909C68.6999 18.4037 68.7494 18.3244 68.8147 18.2594C68.88 18.1944 68.9595 18.1453 69.0469 18.116C69.1343 18.0866 69.2272 18.0778 69.3186 18.0903H73.5066C73.598 18.0783 73.6909 18.0875 73.7782 18.1172C73.8654 18.147 73.9446 18.1964 74.0096 18.2618C74.0747 18.3271 74.1238 18.4066 74.1531 18.4939C74.1824 18.5813 74.1912 18.6743 74.1788 18.7656C74.1929 18.9758 74.1929 19.1867 74.1788 19.3968C74.1188 19.785 74.3966 20.3941 73.8632 20.4983C73.3298 20.6024 73.4245 19.9586 73.2604 19.6304C73.1373 19.3842 73.0427 19.0781 72.7081 19.1191C72.3041 19.1728 72.3105 19.5357 72.3073 19.8324C72.3073 21.2873 72.3073 22.7422 72.3073 24.1971L72.3105 24.1845Z" fill="#71789C"/>
<path d="M82.7662 24.2129C82.7662 25.5163 82.7662 26.8197 82.7662 28.1232C82.7246 28.5169 82.8062 28.9139 82.9998 29.2593C83.3848 29.8274 83.1639 30.0957 82.5295 30.1241C82.3496 30.1241 82.1666 30.1241 81.9835 30.1241C80.6201 30.1241 80.6264 30.1241 80.9831 28.8238C81.0359 28.5867 81.0571 28.3437 81.0462 28.1011C81.0462 25.4058 81.0462 22.7085 81.0462 20.0091C81.0462 19.6682 81.1693 19.1885 80.6896 19.0907C80.1499 18.9802 80.112 19.4883 79.9731 19.8481C79.8595 20.1448 79.8027 20.5898 79.364 20.4983C78.9948 20.4225 79.08 20.0122 79.0674 19.7219C79.0548 19.4315 79.0674 19.056 79.0674 18.7214C79.0589 18.6299 79.0712 18.5377 79.1034 18.4516C79.1356 18.3655 79.1869 18.2878 79.2533 18.2244C79.3198 18.1609 79.3998 18.1133 79.4873 18.0852C79.5748 18.057 79.6675 18.049 79.7585 18.0618H83.8613C84.3379 18.0618 84.5999 18.2796 84.5904 18.7751C84.5904 19.198 84.5904 19.624 84.5904 20.0375C84.5904 20.2458 84.5557 20.4888 84.2748 20.5109C83.9939 20.533 83.9245 20.3184 83.8393 20.1164C83.6751 19.725 83.7383 19.0118 83.1449 19.1254C82.5516 19.239 82.8009 19.9365 82.7915 20.3878C82.741 21.666 82.7662 22.941 82.7662 24.2129Z" fill="#71789C"/>
<path d="M59.3865 34.6371C59.6295 34.6371 59.8725 34.6371 60.1155 34.6371C60.5889 34.6686 60.8256 34.8832 60.529 35.344C60.328 35.7201 60.2434 36.1474 60.2859 36.5717C60.2859 39.2732 60.2859 41.9748 60.2859 44.6763C60.2859 45.0392 60.2291 45.4274 60.4374 45.743C60.8982 46.4531 60.5763 46.6646 59.8851 46.6898H59.4307C58.102 46.6898 58.1115 46.6898 58.386 45.4558C58.4346 45.1565 58.4516 44.8529 58.4365 44.5501C58.4365 41.9095 58.4365 39.269 58.4365 36.6285C58.45 36.355 58.4331 36.0808 58.386 35.8111C58.1178 34.6181 58.1115 34.6181 59.3865 34.6371Z" fill="#71789C"/>
</svg>
