<svg width="82" height="57" viewBox="0 0 82 57" fill="none" xmlns="http://www.w3.org/2000/svg">
<path d="M0 40.2011V9.31887C0.0560662 9.1048 0.117229 8.89073 0.168199 8.67156C0.689388 6.18768 2.06005 3.96314 4.04432 2.38075C6.02859 0.798356 8.50237 -0.0429211 11.0399 0.00168697H70.9492C72.4028 -0.0194866 73.8458 0.250514 75.1934 0.795775C76.5409 1.34104 77.7657 2.15053 78.7955 3.17654C79.8253 4.20255 80.6393 5.42432 81.1896 6.76985C81.7398 8.11538 82.0152 9.55744 81.9994 11.011V38.5956C82.0061 40.0336 81.7276 41.4587 81.1798 42.7883C80.632 44.1179 79.8258 45.3256 78.808 46.3415C77.7903 47.3574 76.5811 48.1612 75.2504 48.7065C73.9198 49.2519 72.4942 49.5278 71.0563 49.5183H27.3909C26.5805 49.5183 26.5652 49.5489 26.713 50.3542C27.0358 52.111 27.3552 53.8711 27.6712 55.6346C27.712 55.8691 27.8802 56.18 27.6712 56.3278C27.4622 56.4756 27.1972 56.2106 26.9882 56.0832C23.6582 54.0342 20.3265 51.9648 16.9932 49.8751C16.6197 49.6301 16.1808 49.504 15.7342 49.5132C14.0216 49.5132 12.3142 49.5132 10.6016 49.5132C9.14147 49.5016 7.69969 49.1866 6.36776 48.5882C5.03582 47.9898 3.84283 47.1211 2.86447 46.0371C1.36033 44.4132 0.364547 42.3844 0 40.2011H0ZM11.1572 16.0111V21.0112C11.1572 21.8624 11.1878 21.8879 12.0593 21.893H13.3438C14.2561 21.893 14.2765 21.8573 14.2969 20.9144C14.3275 19.0897 14.2 17.2548 14.3784 15.4301C14.4006 14.6276 14.7375 13.866 15.3163 13.3098C15.5485 13.0787 15.8375 12.9129 16.1542 12.829C16.4709 12.7451 16.8041 12.7461 17.1203 12.8318C17.4365 12.9176 17.7245 13.0851 17.9554 13.3175C18.1863 13.55 18.3519 13.8391 18.4356 14.1559C18.5619 14.5841 18.6204 15.0296 18.6089 15.476C18.6089 17.3669 18.6089 19.263 18.6089 21.1488C18.6089 21.7095 18.8026 21.9287 19.3581 21.8981C19.9137 21.8675 20.4132 21.8981 20.9433 21.8981C21.6772 21.8981 21.7486 21.8216 21.7486 21.0877C21.7486 19.6452 21.7486 18.1977 21.7486 16.7553C21.7486 15.7665 21.7486 14.7573 22.3194 13.8602C22.532 13.4858 22.8538 13.1851 23.2418 12.9984C23.6298 12.8117 24.0655 12.7478 24.4907 12.8154C25.3929 12.9632 25.7803 13.5952 25.9535 14.4056C26.0894 15.1451 26.1492 15.8966 26.1319 16.6482V21.1641C26.1319 21.5311 26.1319 21.8828 26.6416 21.8879H28.7772C28.8449 21.8963 28.9136 21.8886 28.9777 21.8654C29.0418 21.8423 29.0995 21.8043 29.1462 21.7547C29.1929 21.705 29.2272 21.645 29.2463 21.5796C29.2655 21.5142 29.2689 21.4452 29.2564 21.3782C29.2054 18.8603 29.4348 16.3322 29.1187 13.8246C28.8996 12.0559 28.0994 10.6135 26.2339 10.114C24.3684 9.61449 22.666 10.007 21.4581 11.6431C21.2134 11.9693 21.0656 11.9132 20.8872 11.6125C19.6028 9.48707 16.1573 9.40552 14.7709 11.0314C14.6893 11.1283 14.5976 11.2965 14.4345 11.22C14.2714 11.1436 14.302 10.9754 14.3071 10.8378C14.3326 10.3281 14.0726 10.165 13.5935 10.1802C13.1144 10.1955 12.4977 10.1802 11.9472 10.1802C11.203 10.1802 11.1674 10.221 11.1674 10.9907L11.1572 16.0111ZM58.3445 13.0906C58.3445 10.3637 58.3445 7.63688 58.3445 4.93551C58.3445 4.42582 58.1865 4.22704 57.6768 4.25252C57.1671 4.27801 56.6167 4.25252 56.0866 4.25252C55.2354 4.25252 55.2048 4.28311 55.2048 5.14958C55.2048 7.02525 55.2048 8.89582 55.2048 10.7562C55.2048 10.9295 55.2558 11.1589 55.0519 11.2659C54.848 11.3729 54.8174 11.1385 54.7104 11.0518C53.8086 10.3236 52.6797 9.9353 51.5207 9.95486C50.3617 9.97443 49.2465 10.4006 48.3698 11.1589C47.1399 12.2791 46.3724 13.8182 46.2178 15.4746C46.0632 17.1311 46.5326 18.7856 47.5339 20.1142C49.4861 22.6167 52.9876 22.7697 54.7665 21.0163C54.848 20.9348 54.9347 20.8073 55.0672 20.8634C55.1997 20.9195 55.2099 21.103 55.1997 21.2406C55.1691 21.791 55.475 21.9389 55.9643 21.9236C56.4536 21.9083 57.0244 21.9236 57.5494 21.9236C58.2936 21.9236 58.3445 21.8624 58.3445 21.1132V13.0906ZM43.696 16.0417C43.696 14.3427 43.696 12.6557 43.696 10.9805C43.696 10.2363 43.6552 10.2006 42.8906 10.1955C42.3402 10.1955 41.7897 10.1955 41.2443 10.1955C40.7907 10.1955 40.541 10.3383 40.5715 10.8276C40.5715 10.9601 40.6072 11.1334 40.4696 11.2149C40.332 11.2965 40.2097 11.1436 40.1128 11.0518C38.5837 9.58391 35.8875 9.62978 34.1698 10.8174C31.5449 12.6319 30.7549 16.6635 32.5184 19.4821C34.2819 22.3007 37.5593 22.9582 40.1638 20.9653C40.2555 20.894 40.3371 20.7615 40.4747 20.843C40.6123 20.9246 40.5868 21.0571 40.5766 21.1692C40.5206 21.7605 40.8468 21.9032 41.3616 21.8828C41.8764 21.8624 42.4217 21.8522 42.9467 21.8828C43.4717 21.9134 43.7214 21.6636 43.7112 21.0928C43.6756 19.421 43.696 17.7288 43.696 16.0417ZM68.4772 16.7451C69.8024 16.7451 71.1225 16.7451 72.4426 16.7451C72.988 16.7451 73.1409 16.531 73.1358 16.0162C73.1474 15.095 72.9493 14.1831 72.5566 13.3497C72.1638 12.5163 71.5866 11.7831 70.8687 11.2057C70.1508 10.6282 69.311 10.2216 68.4128 10.0166C67.5145 9.81154 66.5815 9.81348 65.6841 10.0222C62.5648 10.6543 60.7044 13.0804 60.8369 16.3781C60.8454 17.6393 61.2658 18.8631 62.0341 19.8633C62.8024 20.8635 63.8765 21.5851 65.0929 21.9185C66.0217 22.1647 66.9906 22.2219 67.942 22.0867C68.9723 22.0008 69.9614 21.6433 70.8084 21.0505C71.6554 20.4578 72.3301 19.651 72.7637 18.7125C72.9625 18.2895 72.8759 18.1162 72.3916 18.1315C71.6985 18.1315 71.0053 18.1315 70.3172 18.1315C70.137 18.1196 69.9565 18.1508 69.7907 18.2226C69.625 18.2944 69.4787 18.4047 69.3641 18.5443C67.9369 20.1091 64.9145 19.5637 64.1142 17.6472C63.8033 16.9082 63.9053 16.7451 64.6953 16.74L68.4772 16.7451ZM20.7904 31.7301C20.7561 31.6475 20.7371 31.5594 20.7343 31.4701C20.8108 30.8279 20.4896 30.6546 19.9035 30.6954C19.3174 30.7362 18.7261 30.6954 18.1349 30.6954C17.7067 30.6954 17.5028 30.8381 17.5028 31.2968C17.5028 34.7933 17.5028 38.2898 17.5028 41.7863C17.5028 42.2348 17.7067 42.403 18.1349 42.3979C18.7414 42.3979 19.353 42.3673 19.9647 42.3979C20.5763 42.4285 20.7445 42.1838 20.7343 41.6079C20.7037 39.88 20.7343 38.1522 20.7343 36.4243C20.7139 35.6479 20.9504 34.8864 21.4071 34.2581C21.6841 33.8743 22.0716 33.5843 22.5179 33.4267C22.9643 33.2691 23.448 33.2516 23.9046 33.3764C24.8424 33.57 25.2553 34.2989 25.4337 35.1705C25.5119 35.6301 25.5494 36.0957 25.5458 36.5619C25.5458 38.249 25.5458 39.9361 25.5458 41.6232C25.5458 42.2093 25.765 42.4336 26.3409 42.4081C26.9169 42.3826 27.5183 42.4081 28.1096 42.4081C28.5224 42.4081 28.7008 42.2246 28.6906 41.8118C28.6906 41.246 28.6906 40.6752 28.6906 40.1043C28.6396 38.1981 28.8384 36.2816 28.5785 34.3805C28.3542 32.6985 27.5591 31.3223 25.8975 30.7565C24.2359 30.1908 22.5335 30.2774 21.137 31.6026C21.0956 31.6526 21.0417 31.6907 20.9809 31.7131C20.92 31.7355 20.8542 31.7413 20.7904 31.7301V31.7301ZM11.1572 36.5568C11.1572 38.2847 11.1572 40.0126 11.1572 41.7404C11.1572 42.2042 11.3254 42.4132 11.7994 42.403C12.2734 42.3928 12.8952 42.403 13.4457 42.403C14.2255 42.403 14.2918 42.3368 14.2969 41.5722C14.2969 40.0431 14.2969 38.4835 14.2969 36.9391C14.2969 35.1093 14.2969 33.2795 14.2969 31.4497C14.2969 30.8942 14.0981 30.6699 13.5425 30.7005C12.9942 30.7311 12.4446 30.7311 11.8962 30.7005C11.3458 30.6699 11.1368 30.8687 11.147 31.4395C11.1725 33.1317 11.1572 34.8494 11.1572 36.5568ZM14.7505 26.628C14.7425 26.2345 14.6184 25.8521 14.3938 25.5288C14.1692 25.2055 13.8541 24.9558 13.4881 24.811C13.1221 24.6661 12.7214 24.6327 12.3365 24.7147C11.9515 24.7968 11.5993 24.9907 11.3241 25.2722C11.049 25.5537 10.8631 25.9102 10.7898 26.2969C10.7166 26.6837 10.7592 27.0834 10.9123 27.4461C11.0654 27.8087 11.3223 28.118 11.6506 28.3352C11.9788 28.5524 12.364 28.6677 12.7576 28.6668C13.0236 28.6683 13.2872 28.6162 13.5327 28.5137C13.7782 28.4112 14.0005 28.2603 14.1864 28.0701C14.3724 27.8798 14.5182 27.6541 14.6151 27.4064C14.712 27.1586 14.758 26.8939 14.7505 26.628V26.628Z" fill="#71789C"/>
<path d="M49.3586 16.0467C49.3586 14.1761 50.6685 12.7693 52.4167 12.7693C52.8369 12.7748 53.2515 12.8654 53.6355 13.0359C54.0196 13.2063 54.365 13.4529 54.651 13.7607C54.9369 14.0686 55.1574 14.4313 55.299 14.8268C55.4406 15.2224 55.5005 15.6426 55.4749 16.062C55.4749 17.902 54.1599 19.2985 52.4575 19.3087C52.0362 19.31 51.6191 19.2253 51.2318 19.0597C50.8444 18.8941 50.495 18.6512 50.2048 18.3458C49.9147 18.0403 49.6899 17.6789 49.5444 17.2835C49.3989 16.8882 49.3357 16.4673 49.3586 16.0467V16.0467Z" fill="#71789C"/>
<path d="M34.7712 16.0416C34.7712 14.1557 36.0098 12.7898 37.7427 12.7745C39.4757 12.7592 40.8009 14.1659 40.8009 16.0365C40.8009 17.9071 39.4808 19.324 37.7427 19.3087C36.0047 19.2934 34.7712 17.9377 34.7712 16.0416Z" fill="#71789C"/>
<path d="M66.836 14.7215C66.0816 14.7215 65.3069 14.7215 64.578 14.7215C64.0683 14.7215 64.0123 14.5126 64.2009 14.1099C64.4161 13.6141 64.7725 13.1925 65.2257 12.898C65.6789 12.6034 66.2088 12.4488 66.7493 12.4534C67.2922 12.4085 67.8357 12.531 68.3069 12.8044C68.778 13.0778 69.154 13.4889 69.3844 13.9825C69.675 14.5533 69.5781 14.7062 68.9512 14.7164C68.258 14.7317 67.5496 14.7215 66.836 14.7215Z" fill="#71789C"/>
</svg>
